<svg xmlns="http://www.w3.org/2000/svg" viewBox="0 0 15.8 18" height="18px" width="15.8px">
	<path fill="#000000" d="M15.4,14.2l-4.1-6.6V2.2h0.3c0.5,0,0.8-0.4,0.8-0.8c0,0,0,0,0,0V0.8C12.4,0.4,12,0,11.5,0c0,0,0,0,0,0H4.2
		C3.8,0,3.4,0.4,3.4,0.8c0,0,0,0,0,0v0.6c0,0.5,0.4,0.8,0.8,0.8c0,0,0,0,0,0h0.3v5.3l-4.1,6.6c-0.7,1.2-0.4,2.7,0.8,3.4
		C1.6,17.9,2,18,2.5,18h10.8c1.4,0,2.5-1.1,2.5-2.5C15.7,15,15.6,14.6,15.4,14.2z M4.8,11.2l1.7-2.7c0.1-0.2,0.2-0.4,0.2-0.6V2.2H9
		v5.6c0,0.2,0.1,0.5,0.2,0.6l1.7,2.7H4.8z"/>
</svg>
