<svg xmlns="http://www.w3.org/2000/svg" viewBox="0 0 43.7 36.9" height="36.9px" width="43.7px">
	<g>
		<path fill="#E4BB7A" d="M43.7,19.3c0.2-7-5-13.1-12-13.9c-2.2-0.3-4.3-1.1-6.1-2.4c-2.7-1.9-6-3-9.3-3h-0.1C7.4,0,0.2,7.1,0,16
			c0,0.2,0,0.4,0,0.6c0,0,0,0,0,0.1v3.8c-0.1,9,7,16.3,16,16.4c0.1,0,0.1,0,0.2,0h3.1c0.5,0,0.8-0.4,0.8-0.9c0-0.4-0.4-0.8-0.8-0.8
			h-3.1c-6.6,0-12.4-4.5-14-10.8c0.7,1.2,1.5,2.3,2.5,3.3c3,3.1,7.2,4.8,11.5,4.8h13.9c4.8,0,9.2-2.5,11.6-6.6
			c-1.2,5.5-6,9.3-11.6,9.3h-4c-0.5,0-0.8,0.4-0.8,0.9c0,0.4,0.4,0.8,0.8,0.8h4c7,0,12.8-5.3,13.5-12.2c0,0,0-0.1,0-0.1v-5.1
			C43.7,19.4,43.7,19.3,43.7,19.3z M41.9,20.2c-0.3,3-1.8,5.7-4,7.6l0,0c-2.1,1.8-4.9,2.8-7.7,2.8H16.2c-8,0-14.5-6.5-14.5-14.5
			c0-0.1,0-0.1,0-0.2C1.9,8.1,8.3,1.7,16.2,1.7h0.1c3,0,5.9,0.9,8.3,2.7c2,1.5,4.4,2.4,6.9,2.7C38,7.8,42.6,13.7,41.9,20.2z"/>
		<path fill="#E4BB7A" d="M16.7,16.3c-1.1-1.1-1.9-1.8-1.6-3.4c0.2-1.4,0.1-2.8-0.5-4.1c-1.1-2.4-3.8-3.5-6.2-2.4C7.8,6.6,7.3,7,6.9,7.5
			c-1.9,2-3,4.5-3.4,7.2c-0.1,0.5,0.3,0.9,0.7,1c0.5,0.1,0.9-0.3,1-0.7c0,0,0,0,0-0.1c0.3-2.3,1.3-4.5,2.9-6.2
			c0.7-0.8,1.7-1.1,2.7-0.9c1,0.2,1.8,0.8,2.2,1.8c0.4,1,0.6,2,0.4,3.1c-0.4,2.5,0.9,3.8,2.1,4.9c1.6,1.2,2.5,3.1,2.4,5.1v0.2
			c0,1.2-0.6,2.3-1.5,3c-0.9,0.7-2.2,0.9-3.3,0.6c-3.4-1-5.7-2.8-7-5.3c-0.2-0.4-0.7-0.6-1.1-0.4c-0.4,0.2-0.6,0.7-0.4,1.1
			c0,0,0,0,0,0c1.7,3.1,4.6,5.4,8,6.2c0.5,0.2,1,0.2,1.6,0.2c3,0,5.5-2.5,5.5-5.5v-0.2C19.7,20.1,18.6,17.8,16.7,16.3z"/>
		<path fill="#E4BB7A" d="M36.8,17.6c-1.1,0.2-2.2,0.7-3.1,1.3c-3.2,2-7.4,0.3-10.8-1.5c-0.7-0.4-1.6-0.1-2,0.6c-0.2,0.4-0.2,0.9,0,1.3
			c0.6,1.1,0.8,2.4,0.6,3.7c-0.2,1-0.5,2-0.9,3c-0.4,1.1,0.1,2.4,1.2,2.8c0.3,0.1,0.5,0.2,0.8,0.2h7.5c2.4,0,4.8-0.9,6.6-2.4
			c1.7-1.4,2.8-3.4,3.3-5.5c0.2-0.9-0.1-1.9-0.7-2.6C38.6,17.8,37.7,17.5,36.8,17.6z M38.3,20.7L38.3,20.7c-0.4,1.8-1.3,3.4-2.7,4.6
			c-1.5,1.3-3.5,2-5.5,2h-7.5c-0.2,0-0.3-0.1-0.4-0.2c-0.1-0.1-0.1-0.3,0-0.4c0.4-1.1,0.7-2.2,0.9-3.3c0.2-1.4,0.1-2.8-0.5-4.1
			c1.7,0.9,3.5,1.6,5.4,2c2.2,0.6,4.5,0.2,6.5-0.9c0.8-0.5,1.6-0.9,2.5-1c0.4-0.1,0.7,0.1,1,0.3C38.3,19.9,38.4,20.3,38.3,20.7z"/>
		<path fill="#E4BB7A" d="M31.3,8.8L31.3,8.8c-1.4-0.2-2.8,0.5-3.6,1.7l-3,4.6c-0.2,0.4-0.3,0.9-0.2,1.3c0.1,0.4,0.4,0.8,0.9,1
			c1.5,0.7,3.2,1.1,4.8,1.2c0.9,0,1.8-0.2,2.6-0.7c2.7-1.7,4.4-1.7,5.8-1.4c0.5,0.1,0.9-0.2,1-0.7c0-0.2,0-0.3,0-0.5
			C38.3,11.8,35.1,9.2,31.3,8.8z M32,16.4c-1.6,1-4.6-0.1-5.7-0.6l2.9-4.4c0.4-0.7,1.2-1,2-0.9h0c2.7,0.3,5,1.9,6.3,4.2
			C35.5,14.7,33.6,15.3,32,16.4z"/>
		<path fill="#E4BB7A" d="M21.9,15.4c0.8,0.2,1.6-0.1,2-0.9l3-5.9c0.2-0.4,0.1-0.9-0.3-1.2c0,0,0,0-0.1,0c-1-0.5-2-1-2.9-1.7
			c-2.1-1.5-4.7-2.4-7.3-2.4h0c-1,0-1.7,0.8-1.7,1.8c0,0.5,0.2,1,0.6,1.3c0.8,0.6,2,1.9,1.9,3.2l0,0.2c-0.3,2.5-0.6,4.2,0.8,5.7
			c0.3,0.4,0.8,0.6,1.2,0.6H19c0.5,0,0.9-0.2,1.2-0.5C20.7,15.3,21.3,15.2,21.9,15.4z M19.1,14.5L19.1,14.5
			C19.1,14.5,19,14.5,19.1,14.5C19,14.5,19,14.5,19.1,14.5c-0.9-0.9-0.8-1.9-0.4-4.3l0-0.2c0.2-1.6-0.6-3.2-2.5-4.7c0,0,0,0,0,0
			c0,0,0,0,0,0c0,0,0,0,0,0h0c2.3,0,4.5,0.7,6.4,2c0.8,0.5,1.6,1,2.4,1.5l-2.6,5.1c0,0,0,0,0,0C21.2,13.4,19.9,13.6,19.1,14.5z"/>
		<path fill="#E4BB7A" d="M22.8,35.1c-0.5,0-0.9,0.4-0.9,0.9c0,0.5,0.4,0.9,0.9,0.9c0.5,0,0.9-0.4,0.9-0.9c0-0.2-0.1-0.4-0.3-0.6
			C23.2,35.2,23,35.1,22.8,35.1z"/>
		<path fill="#E4BB7A" d="M5.3,18.2c0-0.5-0.4-0.9-0.8-0.9c-0.5,0-0.9,0.4-0.9,0.8s0.4,0.9,0.8,0.9c0.2,0,0.4-0.1,0.6-0.2
			C5.2,18.7,5.3,18.4,5.3,18.2z"/>
	</g>
</svg>
