<svg xmlns="http://www.w3.org/2000/svg" viewBox="0 0 16 16" height="16px" width="16px">
	<path fill="#000000" d="M8,0C3.6,0,0,3.6,0,8s3.6,8,8,8s8-3.6,8-8S12.4,0,8,0z M8,5.7C8,5.7,8,5.7,8,5.7C7.7,5.7,7.4,6,7.4,6.3v3.4
		c0,1.3-1.1,2.4-2.4,2.4c-1.3,0-2.4-1.1-2.4-2.4V8.2h1.8v1.5c0,0.3,0.3,0.6,0.6,0.6c0.3,0,0.6-0.3,0.6-0.6V6.2
		c0.1-1.3,1.2-2.4,2.5-2.3c1.3,0,2.3,1.1,2.3,2.3V7L9.3,7.3L8.6,7V6.3C8.6,6,8.3,5.7,8,5.7z M13.4,9.7c0,1.3-1.1,2.4-2.4,2.4
		c-1.3,0-2.4-1.1-2.4-2.4V8.2l0.7,0.3l1.1-0.3v1.5c0,0.3,0.3,0.6,0.6,0.6s0.6-0.3,0.6-0.6V8.2h1.8C13.4,9.7,13.4,9.7,13.4,9.7z"/>
</svg>
