<?xml version="1.0" standalone="no"?>
<!DOCTYPE svg PUBLIC "-//W3C//DTD SVG 1.1//EN" "http://www.w3.org/Graphics/SVG/1.1/DTD/svg11.dtd" >
<svg xmlns="http://www.w3.org/2000/svg" xmlns:xlink="http://www.w3.org/1999/xlink" version="1.1">
<metadata></metadata>
<defs>
<font id="wild_youthregular" horiz-adv-x="204" >
<font-face units-per-em="2048" ascent="1638" descent="-410" />
<missing-glyph horiz-adv-x="1228" />
<glyph horiz-adv-x="0" />
<glyph horiz-adv-x="682" />
<glyph unicode=" "  horiz-adv-x="1228" />
<glyph unicode="&#x09;" horiz-adv-x="1228" />
<glyph unicode="&#xa0;" horiz-adv-x="1228" />
<glyph unicode="!" horiz-adv-x="1257" d="M205 113q2 -7 5 -22.5t6 -24.5t8.5 -20.5t15 -19t22.5 -12.5q60 -21 115 27l6 6q67 62 88 186q5 22 -4.5 39t-30.5 21q-59 16 -92 12q-60 -7 -100.5 -63.5t-38.5 -128.5zM463 700q2 -18 4 -53t4 -51q0 -19 2 -29q9 -40 42.5 -54.5t68.5 7.5q22 12 45 47q69 89 110 221 q15 44 44 131.5t44 131.5q117 338 217 641q19 59 -0.5 83t-80.5 19q-57 -3 -82 -43q-53 -75 -72 -113q-207 -437 -315 -788q-7 -24 -12.5 -51t-11 -57t-7.5 -42z" />
<glyph unicode="&#x22;" horiz-adv-x="962" d="M207 1468q0 -12 4 -36q15 -63 78 -54q4 1 12 2.5t9.5 2t2.5 -0.5q77 23 103 97q13 36 20.5 80.5t9.5 76t4.5 84.5t4.5 80q1 25 -14.5 37.5t-41.5 9.5q-101 -13 -137 -92q-63 -149 -55 -287zM510 1479q0 -13 4 -37q17 -59 78 -51l24 4q76 23 105 96q12 36 19.5 80.5 t9.5 76.5t4 84t4 80q2 25 -14 37.5t-42 8.5q-98 -10 -137 -91q-63 -149 -55 -288z" />
<glyph unicode="#" />
<glyph unicode="$" horiz-adv-x="1394" d="M205 467q9 -24 27 -43.5t34.5 -30t45.5 -27t44 -26.5q-78 -196 -84 -424q47 -26 66 10q11 20 37 78q26 54 75.5 163.5t75.5 164.5q56 18 68 20q181 50 258 236q78 178 2 352q-34 74 2 147q11 20 21 42t23 54.5t18 43.5l4 9q4 9 4.5 9.5t4 8.5t5 9.5t5 8t6 9t6.5 7.5 t7.5 8t8.5 6.5t10 6.5q15 9 26 31.5t9 39.5q-1 10 -1 20.5v18.5t3 20t4.5 17.5t6.5 19t6.5 17t8 18.5t7.5 17q19 45 58.5 135t59.5 135q2 4 7.5 16.5t8 19t5 17.5t1.5 21.5t-5 21.5q-62 29 -109 -24q-41 -49 -78 -109q-59 -95 -104 -194q-19 -42 -48 -63.5t-75 -24.5 q-100 -5 -186 -105q-87 -96 -25 -200q23 -45 55 -91q40 -56 9 -125q-50 -113 -205 -473q-5 -9 -18 -27.5t-15 -21.5l-50 25t-56 26q-54 24 -74 -20zM627 563l57 125q8 -67 -43 -135q-2 2 -7 5t-7 5zM711 1316q13 31 73 68q-3 -47 -17 -81.5t-48 -77.5q-21 60 -8 91z" />
<glyph unicode="%" />
<glyph unicode="&#x26;" horiz-adv-x="1830" d="M219 649q-40 -215 39 -354q51 -81 123 -170q73 -90 199 -127q140 -44 303 -18q297 43 424 315q74 154 -21 270q-2 2 -2 19q18 8 56 23.5t57 23.5q118 57 170 137q24 39 21 57q-2 12 -11 21q-10 11 -20.5 11.5t-17.5 -4.5t-17 -15t-15 -13l-16 -12q-132 -127 -354 -143 q-65 -4 -217 -33q-113 -23 -177 -137q-24 -41 -5 -77t67 -42q9 -1 19.5 0t23.5 3t18 3q13 30 13 33q1 51 30 80t80 49q72 27 125 -23q56 -50 29 -123q-83 -217 -260 -288q-126 -48 -219 24q-243 186 -238 445q1 117 47.5 230.5t124 203.5t184 154t224.5 85q3 -2 18.5 -14.5 t24.5 -17.5q49 -21 71 -23q22 -3 40 4t22 27q3 28 -19 61q-10 17 -42.5 62t-45.5 71q-38 82 -31 127q44 265 302 301q86 10 140 -52.5t32 -147.5q-38 -151 -172 -232q-11 -7 -33.5 -22.5t-32.5 -22.5q57 -33 127 -4q152 68 211 256q27 85 -30 173t-144 100q-143 20 -291 -35 q-189 -68 -260 -275q-36 -95 8 -184q13 -25 31 -70q-17 -9 -31 -12q-216 -50 -416 -225q-224 -204 -266 -453z" />
<glyph unicode="'" horiz-adv-x="763" d="M205 1456q-3 -63 57 -74l25 -4q45 -1 74.5 13.5t54.5 44.5q31 40 53.5 85t49 115.5t36.5 92.5q9 23 -2 39.5t-37 21.5q-100 20 -158 -43q-106 -115 -145 -254q-4 -11 -8 -37z" />
<glyph unicode="(" />
<glyph unicode=")" />
<glyph unicode="*" horiz-adv-x="911" d="M205 1444q14 -27 38 -33t53 -5.5t44 -8.5q-1 -16 -1 -29t8 -24t26 -17q8 -3 60.5 -22.5t80.5 -26.5q38 -9 57 9t19 59q0 10 -4.5 29t-3.5 34.5t12 30.5q10 3 36 6t45 12t32 31l-62 35q7 11 28 39t32 45q-7 9 -23 24.5t-23.5 27.5t-9.5 30q-4 46 -39.5 58t-70.5 -19 q-12 -11 -32 -35.5t-24 -28.5q-5 0 -34 4t-39.5 3.5t-30 -8.5t-33.5 -26q3 -19 23 -122q-20 -17 -82 -27t-82 -45z" />
<glyph unicode="+" horiz-adv-x="1232" d="M205 893q31 -36 72 -46t93.5 -9.5t82.5 -8.5q-3 -15 -10 -38.5t-11 -42t-6 -35.5q-10 -110 -10 -199q0 -13 10.5 -29t22.5 -24q40 -27 84 -11t61 62q11 33 94 289q4 11 8.5 23t10 24.5t8.5 19.5q27 7 69.5 13.5t72 12.5t63.5 17.5t61 34t47 55.5q-23 54 -88 54 q-11 0 -102 -11q-5 -1 -17 -3t-18.5 -2.5t-16 -0.5t-18.5 4t-18 11l43 172q20 94 24 141q6 57 -43 76q-29 12 -57 5t-45 -32q-12 -17 -29 -61t-51 -133.5t-51 -133.5q-7 -21 -21 -56.5t-16 -41.5q-39 -19 -97.5 -28.5t-111 -22.5t-90.5 -45z" />
<glyph unicode="," horiz-adv-x="763" d="M205 -125q-3 -63 57 -74l25 -4q45 -1 74.5 13.5t54.5 44.5q31 40 53 84.5t49.5 115.5t36.5 92q9 23 -2 40t-37 22q-100 20 -158 -43q-106 -115 -145 -254q-4 -11 -8 -37z" />
<glyph unicode="-" horiz-adv-x="1222" d="M205 727q0 2 1 5t1 5q11 26 38.5 48.5t55.5 23.5l389 8q46 0 62 1t63 1q9 0 36 1.5t46 2t41.5 -4t34.5 -13.5q17 -14 35 -72q14 -27 8 -39q-2 -4 -6 -8q-6 -4 -17 -6t-25.5 -4t-15.5 -2l-217 -10q-55 0 -334 -2q-39 0 -125 4q-36 3 -61 32q-12 17 -10 29z" />
<glyph unicode="." horiz-adv-x="677" d="M205 113q2 -7 5 -22.5t6 -24.5t8.5 -20.5t15 -19t22.5 -12.5q60 -21 115 27l6 6q67 62 88 186q5 22 -4.5 39t-30.5 21q-59 16 -92 12q-60 -7 -100.5 -63.5t-38.5 -128.5z" />
<glyph unicode="/" horiz-adv-x="1425" d="M205 -39q64 -37 98.5 -31t63.5 62q18 34 200 401q344 694 539 1163q28 67 104 287q13 32 9 84q-1 17 -15.5 23t-27.5 -2q-28 -10 -41 -37q-27 -41 -60 -109q-239 -475 -315 -633q-132 -269 -475 -981q-55 -113 -80 -227z" />
<glyph unicode="0" horiz-adv-x="1077" d="M0 360q0 -72 25 -149q38 -120 170 -133q86 -6 170 12q164 33 305 184q395 417 395 957v94h2q8 159 10 229q1 45 -8.5 55t-54.5 15q-38 5 -53 14q-102 63 -236 -4q-99 -51 -193 -155q-294 -323 -466 -772q-63 -171 -66 -347zM273 338.5q-4 68.5 8 122.5q31 211 108 395 q109 253 165 356q46 84 95 154q36 52 137 170q38 44 76 51q50 -27 58 -98q7 -55 0 -141q-9 -93 -7 -131q5 -66 -22 -170q-93 -372 -332 -660q-44 -51 -123 -119q-57 -50 -127 -53q-32 55 -36 123.5z" />
<glyph unicode="1" horiz-adv-x="718" d="M145 190q-9 -47 23.5 -71.5t77.5 -5.5q23 9 45 34q7 10 16 32t12 28q136 296 242 614q48 146 146.5 421.5t113.5 318.5q18 50 35 120q17 56 -18 76q-51 31 -99 0q-9 -5 -23 -20.5t-18 -18.5q-116 -112 -168 -155q-147 -122 -315 -181q-1 0 -10 -3t-12.5 -5t-9.5 -7 t-7.5 -13t0.5 -19q56 -6 112.5 10t95 38.5t94.5 58.5t91 53q13 -13 15 -16q-6 -13 -17.5 -38.5t-17.5 -37.5q-194 -413 -283 -690q-48 -156 -121 -523z" />
<glyph unicode="2" horiz-adv-x="1193" d="M-101 191.5q6 -19.5 31 -25.5q88 -21 148 16q58 34 92 49q64 30 116 33.5t120 -26.5q181 -90 458 -39q50 11 80 28q33 20 57 60q6 11 7.5 27.5t-4.5 25.5q-12 15 -52 10q-13 -2 -40.5 -10.5t-43.5 -9.5q-8 -1 -34.5 -3t-38.5 -2.5t-33 -1t-38.5 1.5t-33.5 5 q-53 12 -110.5 28t-132.5 38.5t-113 33.5q13 16 39 47q185 230 221 277q210 278 307 579q30 107 33 129q12 130 -113 164q-82 25 -159 10q-228 -44 -388 -276q-20 -33 -30 -78q-16 -62 16 -90q46 -37 102 2q-3 59 21.5 111t56.5 84.5t86 74.5q49 36 95 66q19 12 30.5 18.5 t29 12.5t33.5 3t31 -14q22 -15 27 -40.5t1.5 -42t-13.5 -48.5q-66 -195 -189 -375q-149 -215 -151 -219q-131 -184 -238.5 -313.5t-234.5 -235.5q-8 -7 -39 -43q-15 -22 -9 -41.5z" />
<glyph unicode="3" horiz-adv-x="954" d="M-47 303q-31 -85 4.5 -146.5t126.5 -80.5q96 -19 209 0q305 47 448 276q187 292 56 652q-63 172 -209 221q-10 5 -25 20q106 118 152 172q6 7 36 40t41 47.5t26.5 43.5t21.5 56q-46 59 -123 45q-249 -47 -498 -99q-13 -2 -37 -16.5t-30 -17.5q15 -22 36 -30.5t33.5 -7.5 t38.5 5q38 5 147 21t173 24q-3 -7 -5.5 -13.5t-4 -10t-3.5 -5.5l-106 -123q-83 -107 -103 -137q-20 -31 -12.5 -49.5t41.5 -30.5q2 -1 8 -3t10.5 -3t8.5 0q36 2 63 -14.5t40 -35.5t32 -54q39 -81 55 -242q28 -302 -178 -516q-84 -89 -246 -117q-72 -12 -84 66q-15 84 43 151 q9 12 29 32.5t29 31.5q27 34 -11 57q-90 -7 -144.5 -61.5t-88.5 -147.5z" />
<glyph unicode="4" horiz-adv-x="864" d="M61 877q23 -35 57.5 -43.5t69.5 0.5q120 17 211 0q-3 -39 -8 -60l-74 -315q-39 -164 -30 -322q0 -38 24 -59q41 -34 101.5 -19t83.5 66q33 75 45 127q24 104 64.5 298t51.5 243q12 58 25.5 69.5t73.5 14.5q44 0 67 4q13 2 41 22q-19 29 -48 35t-62.5 5.5t-53.5 12.5 q-8 31 9 99q67 301 108 495q15 67 17 113q0 46 -34.5 69.5t-76.5 4.5q-27 -12 -49 -41q-27 -32 -73 -93t-62 -81q-256 -340 -461 -611q-3 -4 -5.5 -9.5t-6 -13t-5.5 -11.5zM313 924q25 95 201 309q-1 -27 -8 -54.5t-18 -56.5t-15 -45q-6 -26 -23 -77t-24 -76h-113z" />
<glyph unicode="5" horiz-adv-x="976" d="M-41 281q-3 -86 47.5 -148.5t134.5 -71.5q89 -9 181 7q118 23 219.5 84t173 149.5t108.5 205t29 243.5q-11 171 -121.5 279.5t-279.5 109.5h-66q-13 0 -37.5 2.5t-32.5 3.5l91 340h69q276 -6 279 -6q16 0 30.5 -1t29.5 7.5t24 27.5q-6 8 -12.5 13.5t-16 9.5t-14.5 6.5 t-18 4t-15.5 2t-18.5 1.5h-16q-63 2 -191 5.5t-192 5.5q-87 3 -111 -72q-69 -216 -112 -365q-14 -49 35 -67q56 -23 133 -13q86 11 141 11q75 3 121 -49q78 -85 86 -177q22 -261 -100 -471q-103 -176 -295 -202q-46 -7 -72 12q-73 70 -57 156q12 58 36 92t78 45q18 3 28 5.5 t24.5 12.5t23.5 27q-25 30 -60.5 36t-64.5 -3q-92 -17 -153 -89.5t-66 -168.5z" />
<glyph unicode="6" horiz-adv-x="739" d="M-35 479q-26 -130 51 -256q66 -105 187 -123q141 -20 264 73.5t145 234.5q11 70 -18 110q-35 51 -118 66t-134 -21q-8 -6 -13.5 -18t-4.5 -21q3 -16 30 -30q22 -8 80 -21q4 -91 -41 -159t-133 -103q-70 61 -74 188q-5 114 37 285q81 326 299 723q3 6 17 28.5t20.5 39.5 t5.5 36q-48 27 -104 -22q-48 -42 -88 -98q-223 -329 -334 -633q-38 -111 -74 -279z" />
<glyph unicode="7" horiz-adv-x="845" d="M0 604l11 -11t16 -11q30 -9 74.5 -5t74.5 11.5t77 18t83 14.5q0 -1 -33 -109q-69 -208 -29 -395q8 -39 26 -56t56 -20q85 -6 117 65q8 18 33 75t40.5 95t28.5 76q32 88 93 266.5t92 266.5q24 70 72 196.5t67 180.5q45 127 64 211q13 56 -8.5 81t-80.5 23q-25 0 -75 -12 q-18 -4 -102.5 -22.5t-131.5 -26.5q-36 -7 -107.5 -20.5t-107.5 -20.5q-63 -12 -74 -52q-14 -50 -40 -104.5t-47.5 -90t-59.5 -93.5q-5 -8 -11 -27.5t-7 -22.5q47 -19 70.5 -15.5t47.5 36.5q29 39 101 172q7 14 51 111q84 15 367 61q-3 -7 -8.5 -21t-8.5 -20l-313 -612 q-28 -58 -84 -68q-73 -15 -258 -70q-46 -12 -60 -26q-11 -12 -16 -29z" />
<glyph unicode="8" horiz-adv-x="890" d="M-20 186q0 -26 14 -112q15 -75 88 -90q73 -13 104 -7q241 52 349 261q77 145 77 311q0 119 -20 266q-11 80 47 135q155 146 242 330q47 95 65 199q24 135 -67 280q-33 52 -81 62.5t-100 -19.5q7 -8 20.5 -22.5t23 -26.5t14.5 -24q41 -94 0 -177q-76 -167 -226 -305 q-1 -1 -2.5 -1h-5t-6.5 -1q-35 84 -6 211q9 40 19.5 68t30 57.5t53 46.5t79.5 21q-19 27 -42 38t-40 10t-41 -7q-170 -50 -202 -207q-41 -187 -5 -340q18 -74 -32 -121q-174 -164 -283 -469q-57 -158 -67 -367zM139 174q16 122 37 184q24 75 91.5 174.5t140.5 172.5 q8 -46 8 -56q0 -170 -60 -344q-34 -98 -108 -178q-15 -17 -24.5 -25.5t-26.5 -17t-35 -8.5q-34 32 -23 98z" />
<glyph unicode="9" horiz-adv-x="915" d="M125 1221q-46 -113 2.5 -193t169.5 -92h49q40 4 170 22q-13 -36 -33 -79q-99 -200 -151 -430q-22 -97 -37 -275q-3 -34 16 -53t54 -21q66 -3 92 56q10 23 82.5 165.5t97.5 223.5q22 74 63 162q45 104 137.5 309t137.5 309q29 71 41 117q12 53 -37 69q-105 27 -164 -18 q-1 -1 -47 -41q-73 97 -155 120.5t-183 -22.5q-43 -18 -90 -53q-149 -109 -215 -276zM311 1165q38 186 154 291q10 8 39 29q62 44 114 16q27 -15 43.5 -47t16.5 -68q-5 -43 -10 -67t-21.5 -56.5t-44.5 -54.5q-7 -5 -76 -63.5t-108 -85.5q-77 -57 -103 41q-11 42 -4 65z" />
<glyph unicode=":" horiz-adv-x="1228" d="M178 55q2 -6 5.5 -22t6 -24.5t8.5 -20t15.5 -19t22.5 -12.5q59 -21 114 27l6 6q67 62 88 186q5 23 -4 39.5t-30 20.5q-59 16 -93 12q-60 -7 -100.5 -64t-38.5 -129zM205 688q2 -6 5 -22t6 -24.5t8.5 -20t15 -19t22.5 -12.5q61 -22 115 26l6 7q67 62 88 186 q5 22 -4.5 38.5t-30.5 20.5q-61 17 -92 13q-60 -7 -100.5 -64t-38.5 -129z" />
<glyph unicode=";" horiz-adv-x="765" d="M207 -125q-3 -63 57 -74l25 -4q45 -1 74.5 13.5t54.5 44.5q31 40 53 84.5t49.5 115.5t36.5 92q9 23 -2 40t-37 22q-100 20 -158 -43q-106 -115 -145 -254q-4 -11 -8 -37zM276 688q2 -6 5.5 -22t6 -24.5t8.5 -20t15.5 -19t22.5 -12.5q61 -22 115 26l6 7q67 62 88 186 q5 22 -4.5 38.5t-30.5 20.5q-61 17 -92 13q-60 -7 -101 -64t-39 -129z" />
<glyph unicode="&#x3c;" horiz-adv-x="1191" d="M205 858q42 -46 97 -75.5t132 -55.5q69 -23 202 -70.5t148 -52.5q72 -25 90 -26q38 -4 64.5 4t44.5 41q-20 25 -25 28q-180 90 -274 133q-26 11 -77.5 29t-74.5 27q-11 6 -33.5 22.5t-35.5 24.5q67 52 84 63q60 40 182.5 120t183.5 120q3 2 23 13.5t26.5 17t15 19 t9.5 30.5q-66 59 -170 8q-159 -78 -260 -139q-70 -42 -198 -124.5t-154 -99.5v-57z" />
<glyph unicode="=" horiz-adv-x="1204" d="M204.5 731.5q-0.5 -22.5 22.5 -33.5q51 -25 109 -28q195 -13 455 41q61 16 114 43q11 5 23 13t20.5 14.5t24.5 20t26 21.5q-11 8 -21.5 18t-16.5 15t-11 6q-78 9 -104 6q-62 -9 -172.5 -23.5t-202 -27t-172.5 -24.5q-29 -5 -72 -27q-22 -12 -22.5 -34.5zM322 1001 q28 -49 100 -45q202 22 330 43q75 13 129 88q-27 9 -56.5 14.5t-51.5 8t-55 1t-49 -2t-52.5 -6.5t-47.5 -8t-52 -11t-48 -10q-3 -1 -26 -4.5t-29.5 -5.5t-24.5 -7.5t-27 -12t-20.5 -17.5t-19.5 -25z" />
<glyph unicode="&#x3e;" horiz-adv-x="1177" d="M205 1196q6 -5 22.5 -21.5t26.5 -21.5q140 -66 211 -90q49 -18 141.5 -44.5t114.5 -33.5q10 -3 31 -15t30 -16q-5 -6 -11 -14.5t-10 -14t-9.5 -11.5t-10.5 -9q-83 -65 -139 -100q-32 -21 -96.5 -57t-93.5 -54q-25 -16 -38 -25.5t-28.5 -29.5t-21.5 -45q4 -2 14.5 -9.5 t18 -11.5t14.5 -6q58 -14 118 23q270 152 283 160q62 38 117 84q38 32 67 79q40 57 -16 101q-40 28 -68 37q-56 20 -172 57l-299 96q-4 1 -42 14t-58 17q-60 13 -96 -39z" />
<glyph unicode="?" horiz-adv-x="1507" d="M209 53q-14 -65 20 -105t109 -40q43 14 63 24q43 25 75 97t20 118q-5 14 -17 29t-24 19q-62 19 -103 14q-62 -7 -94 -47.5t-49 -108.5zM410 496q2 -117 131 -88q17 4 51 38q49 55 75 122t44 157q0 1 2.5 14t3 15.5t2.5 13t4 15t5.5 12.5t7.5 14t9 12q21 25 70 83.5 t76.5 91.5t67 82t71.5 91q105 135 197 293q92 159 71 340q-6 66 -40.5 99t-100.5 38q-63 3 -115 -8q-328 -66 -503 -415q-26 -47 -29 -109q-1 -35 19 -58t55 -28q14 -1 38 1.5t31 2.5q7 22 21 70t25.5 81.5t27.5 61.5q36 63 137 168q90 93 189 106q23 -57 0 -141 q-29 -95 -70 -188q-34 -75 -81.5 -143.5t-119.5 -159.5q-28 -35 -108.5 -140t-128.5 -159q-49 -54 -76.5 -119t-50.5 -154q-11 -52 -8 -112z" />
<glyph unicode="@" horiz-adv-x="2252" d="M281 991q-165 -355 30 -755q74 -147 244 -199q187 -55 397 -6q409 95 645 499q6 12 11.5 26.5t12.5 39t11 37.5q255 186 377 532q55 153 31 312q-32 231 -185 319q-242 137 -487 96q-63 -11 -133.5 -35.5t-117 -46.5t-124.5 -61q-467 -236 -712 -758zM444 868 q167 519 590 789q104 65 279 147q82 37 168 36.5t157.5 -26.5t153.5 -75q51 -32 68 -101q69 -289 -31 -505q-103 -223 -277 -385q-8 -8 -24.5 -21t-20.5 -16q-4 -2 -15 -6t-17 -7q-5 13 -6 25.5t1.5 25t4.5 19.5t8 21t8 18q28 67 119 262q2 4 16.5 37t20.5 51q15 44 -2.5 68 t-63.5 24q-51 3 -88 -47q-2 -3 -9.5 -12t-10 -12.5t-9 -11.5t-11 -12.5t-11 -10.5t-12.5 -11t-13 -10q3 9 14.5 36t16.5 42q28 73 -2.5 123.5t-108.5 62.5q-104 16 -188 -20q-38 -17 -51 -25q-374 -226 -531 -598q-50 -118 -45 -213q3 -72 41.5 -114t110.5 -49 q153 -19 262 63q35 26 71 55t83 69t69 58q14 12 39.5 35t38.5 35q9 -12 22.5 -32.5t25.5 -35.5t26 -24q15 -10 34 -16t46.5 -11.5t40.5 -9.5q0 -2 -1.5 -11.5t-3.5 -13.5q-187 -256 -421 -348q-110 -44 -211 -55q-183 -18 -271 145q-169 317 -80 598zM762 510q1 12 1 32.5 t1 34t4 25.5q14 81 37 139q131 313 334 496q11 11 23 20.5t28 20t25 16.5t30 18.5t27 16.5q50 31 96 -12q46 -39 31 -94q-12 -36 -21 -54q-37 -72 -51 -92q-220 -350 -530 -555z" />
<glyph unicode="A" horiz-adv-x="1550" d="M0 219q0 -130 133 -178q58 -19 119 -19q70 0 143 25q126 41 254 152q134 113 322 340q17 19 47.5 57t36.5 45l10 -12q-78 -193 -125 -320q-27 -76 -39 -157q-3 -15 -3 -29q0 -34 16 -56q22 -32 75 -38q26 -3 50 -3q48 0 89 13q83 29 158 88q102 79 213 187t180 185 t187 212l6 6q2 4 11 17.5t11.5 20t2.5 18t-7 22.5q-10 15 -33 9t-49 -32q-26 -27 -79 -82.5t-80 -81.5q-250 -250 -467 -409q-4 -3 -14.5 -11t-16 -11.5t-15.5 -9t-20 -8t-22 -3.5q8 53 14 67q101 259 182 453q44 101 126.5 284t107.5 240q13 31 28 90q1 5 1 10q0 30 -33 41 q-22 9 -42 9q-33 0 -57 -25q-43 -43 -57 -63q-18 -23 -95 -121.5t-120 -149.5q-31 -38 -188 -223q-2 27 18 63q155 241 235 523q18 60 23 102q2 14 2 28q-1 58 -33 98q-40 50 -116 56q-18 1 -36 1q-60 0 -124 -15q-130 -31 -271 -158q-475 -422 -641 -1085q-18 -68 -18 -162 zM225 301q27 178 135 436q153 379 451 680q39 39 156 125q31 22 69 31q18 5 34 5q22 0 38 -9q28 -16 35 -60q4 -27 4 -56q0 -41 -8 -85q-22 -125 -111 -293q-30 -53 -86 -151t-70 -123q-20 -34 -47 -86q23 -18 49 -41q-190 -214 -275 -297q-63 -62 -124 -113 q-17 -15 -92 -67q-55 -33 -74 -41q-37 -18 -55 -9t-27 50q-5 28 -5 58q0 22 3 46z" />
<glyph unicode="B" horiz-adv-x="1538" d="M6 80q-6 -18 -6 -33q0 -42 55 -51q20 -3 38 -3q71 0 114 44l34 34t39 40.5t31 35.5q181 223 293 367q292 384 553 621q85 79 135.5 123t131.5 103.5t157 98.5q13 8 61 23q-50 -100 -112 -162l-516 -526q-48 -48 -70 -80q-11 -15 -5.5 -32t24.5 -24q46 -16 73 -16 q24 0 152 10h65q9 -22 9 -49q0 -44 -25 -102q-6 -12 -22.5 -48t-25.5 -53.5t-23.5 -46.5t-29 -52t-30.5 -44q-192 -256 -445 -256q-51 0 -104 10q-11 2 -21 2q-39 0 -57 -32q6 -16 17 -26.5t20 -14t25 -7.5q74 -21 148 -21l108 11q469 104 649 539q19 42 27 82q4 24 4 46 q1 55 -27 93q-38 52 -125 61q-25 3 -104 3q-7 1 -15.5 1.5t-22.5 1.5t-26 1q9 10 28 30t27 29q322 321 385 387q58 61 117 139q40 52 60 109q12 29 12 51q0 25 -14 43q-23 29 -75 30q-9 0 -18 -1q-24 -2 -82 -25q-147 -63 -321 -205q-419 -340 -778 -764q-9 -11 -41 -38 q36 81 116 213q241 385 400 643q9 16 24.5 49.5t24.5 50.5q-46 24 -86 24q-53 0 -94 -42q-105 -109 -168 -195q-36 -47 -70.5 -95.5t-70.5 -105t-62.5 -97.5t-65 -108.5t-58 -100.5t-61.5 -110.5t-55.5 -102t-60 -111.5t-55.5 -105q-20 -38 -38 -80t-40 -101.5t-31 -82.5z " />
<glyph unicode="C" horiz-adv-x="997" d="M4 297q-4 -24 -4 -47q0 -80 46 -138q60 -76 171 -85q31 -2 59 -2q98 0 158 30q102 53 377 207q29 14 41 39q13 23 6 51q0 4 -16 8t-25 2q-5 -1 -78 -34l-364 -168q-56 -25 -91 -25h-5q-50 33 -50 96v7q4 97 17 151q32 125 88 245.5t141 268.5q213 367 449 606 q78 85 151 121q47 -36 51 -106q2 -22 2 -42q0 -78 -30 -136l-174 -320q-6 -11 -29 -65q48 -17 74 -17q7 0 11 1q24 5 54 46q152 202 217 412q12 47 12 92t-12 88q-25 76 -83 111q-37 23 -81 23q-24 0 -51 -7q-85 -18 -155 -70q-105 -73 -213 -178q-298 -293 -533 -778 q-110 -230 -131 -387z" />
<glyph unicode="D" horiz-adv-x="1724" d="M6 139q8 21 31 83.5t40.5 104t37.5 79.5q15 28 71.5 133.5t78 144t71.5 129t81.5 142t77.5 126t89.5 137t89.5 123.5q71 95 168 195q42 42 94 42q40 0 86 -24q-8 -16 -24 -50.5t-25 -51.5l-400 -641q-76 -126 -116 -213q29 24 41 39q206 247 448 473q129 123 238 211.5 t231 155.5q121 69 189 88q48 15 96 15q21 0 41 -3q97 -10 157 -73q51 -54 51 -138q0 -14 -1 -29q-17 -152 -109 -360q-208 -466 -463 -733q-95 -98 -188 -170q-57 -46 -141 -70q-27 -8 -52 -8q-37 0 -70 18q-54 30 -79 99q-16 44 -16 90q0 37 10 76q52 195 184 387 q28 38 50 43q5 1 11 1q23 0 66 -14l-25 -61q-8 -17 -63.5 -128.5t-83.5 -170.5q-25 -52 -26 -121q0 -21 3 -43q7 -63 52 -96q62 32 137 114q206 230 389 574q149 279 192 481q11 49 11 139v6q0 54 -49 87q-30 0 -86 -27q-203 -98 -359 -205q-180 -126 -344 -311 q-133 -147 -295 -359q-63 -82 -293 -366q-22 -29 -104 -111q-45 -45 -111 -45q-19 0 -41 4q-55 9 -55 50q0 14 6 32z" />
<glyph unicode="E" horiz-adv-x="1126" d="M0 276q6 -60 27 -115t70.5 -106t121.5 -84q136 -63 258 -63q58 0 113 14q264 68 342 330q8 27 8 54q0 47 -25 96q-40 76 -110 98q-19 5 -35 5q-21 0 -37 -9q-6 -3 -10 -7t-5.5 -9t-2 -9t1.5 -11.5t2.5 -11t3.5 -12t4 -10.5l18 -43q17 -32 17 -66q0 -36 -19 -73 q-67 -127 -200 -197q-27 -13 -56 -13q-27 0 -55 11q-100 41 -152 125q-47 76 -48 156q0 9 1 18q11 216 156 414q67 88 117 100q12 3 27 2q48 0 129 -31q28 -12 45 -14h37t36 10.5t33 32.5q-10 15 -34.5 56t-39.5 61q-50 73 -50 157q0 48 16 99q47 142 124 246q58 77 140 116 q37 17 67 17q67 0 99 -84q14 -47 14 -84q1 -12 1 -24q0 -113 -77 -208q-21 -27 -45.5 -52.5t-62.5 -62t-50 -48.5q-9 -8 -23.5 -24.5t-19.5 -21.5q19 -23 47 -23q16 0 35 7q86 29 152 98q112 118 154 283q11 41 11 79q-1 46 -17 88q-30 75 -104 111q-49 24 -106 23 q-29 0 -61 -6q-193 -34 -309 -193q-61 -88 -129 -223q-24 -49 -33 -91q-4 -20 -4 -43t4 -49q10 -50 45 -99q-18 -3 -40.5 -8.5t-31.5 -6.5q-135 -6 -243 -117q-182 -191 -234 -442q-10 -36 -10 -75q0 -19 2 -38z" />
<glyph unicode="F" horiz-adv-x="987" d="M0 590q38 -41 91 -41q17 0 36 4q37 7 192 51q10 2 30.5 9.5t38.5 11t36 2.5q-6 -13 -20.5 -42t-20.5 -44q-69 -177 -90 -242q-22 -69 -22 -152q0 -90 26 -196q12 -39 27 -62q32 -51 84 -55h7q49 0 97 41q-38 34 -38 110q0 14 1 29q10 99 31 170q74 248 205 471 q153 249 370 500q176 201 287 406q67 121 70 225v12q0 112 -105 166q-65 32 -119 37q-60 5 -109 5q-58 0 -99 -7q-464 -80 -748 -457q-76 -100 -104 -235q-6 -29 -6 -56q0 -56 24 -102q33 -80 109 -100q12 -3 22 -3q32 0 47 29q-6 20 -22 66q-24 62 -25 122q0 67 31 130 q45 96 100 161q133 167 363 293q132 69 262 86q30 3 56 3q39 0 67 -7q94 -18 94 -107q0 -12 -2 -26q-11 -83 -43 -135q-73 -127 -154 -229q-54 -66 -162.5 -188.5t-156.5 -180.5q-113 -128 -223 -272q-47 -61 -119 -72q-139 -19 -299 -57q-28 -7 -43.5 -12t-38 -20.5 t-35.5 -39.5z" />
<glyph unicode="G" horiz-adv-x="1114" d="M12 176q45 -145 152 -206q67 -39 154 -39q52 0 112 14q157 37 273.5 178t127.5 305q2 16 9 61l114 19q184 27 344 108q50 24 101 72q24 26 21 43.5t-36 59.5l-100 -46q-149 -66 -184 -77q-132 -42 -257 -42q-33 0 -65 3q-23 1 -43.5 1.5t-42 -11t-35.5 -35.5 q19 -57 19 -111q0 -49 -16 -95q-33 -96 -117 -204q-20 -25 -33 -35q-93 -67 -133 -90q-28 -15 -45.5 -10t-36.5 33q-56 79 -56 164q0 26 5 53q44 217 75 295q194 494 619 811q52 38 88 57q50 27 83 27q16 0 29 -7q36 -20 42 -106q2 -16 -2 -47q-18 -160 -107 -285 q-4 -5 -11 -14.5t-11.5 -15.5t-10 -15t-8.5 -18q-5 -8 -5.5 -23t3.5 -18q30 -17 51 -8q23 6 43 34q9 15 29 48t31 52t26 47.5t25 53.5q35 82 49 203q2 17 2 32q0 67 -36 106q-45 49 -136 52h-17q-117 0 -239 -65q-198 -108 -367 -273q-370 -361 -477 -856q-12 -50 -12 -95 t12 -85z" />
<glyph unicode="H" horiz-adv-x="1699" d="M0 -401q43 -26 47 -27q9 -2 19 -2q42 0 88 37q126 104 172 139q274 206 405 543q59 148 111 317q16 61 80 82q86 28 241 84t201 72q4 1 15 -0.5t16 -1.5q-14 -42 -17 -49q-113 -253 -123 -279q-58 -144 -153 -414q-5 -10 -4.5 -27t6.5 -24q13 -18 34.5 -19t35.5 11 q44 26 67 65q22 38 80 134.5t98 167.5t72 139q307 656 481 1548q12 70 15 143v9q0 61 -41 67q-4 1 -8 1q-40 0 -62 -54l-18 -63q-16 -55 -43.5 -152t-50.5 -177t-46 -149q-51 -151 -250 -712q-9 -23 -15.5 -35.5t-21.5 -25.5t-36 -19q-73 -20 -217.5 -60.5t-216.5 -60.5 q-11 -1 -16 -1t-19 2t-23 3q22 69 69 230t85 276t82 219q20 49 78 143q57 91 129 107q1 0 1.5 2.5l1.5 7.5t3 8q-17 15 -39.5 18t-37 -0.5t-40.5 -13.5q-77 -30 -152 -112q-100 -117 -165 -289q-111 -295 -213 -594q-18 -51 -45 -79.5t-76 -41.5q-57 -15 -222 -86 q-15 -7 -23.5 -12t-16 -17t-5.5 -28q1 -1 4.5 -5.5t7 -7.5t7.5 -4q21 -7 46 -7q11 -1 23 1q39 4 67.5 14t69 21t72.5 12q-44 -125 -68.5 -191.5t-69.5 -164.5t-93 -174q-46 -74 -109 -147t-146.5 -159.5t-127.5 -137.5z" />
<glyph unicode="I" horiz-adv-x="784" d="M6 1188q-6 -25 -6 -48q0 -52 29 -100q13 -24 39.5 -33t52.5 1q33 14 33 51q0 9 -2 20q-9 36 -9 71q0 68 33 134q42 89 82 139q174 218 469 316q35 13 71 13q69 0 138 -48q40 -29 40 -70q0 -14 -5 -30q-9 -38 -27 -72q-71 -127 -119 -207q-386 -610 -424 -672 q-98 -161 -125 -266q-7 -32 -7 -66q0 -84 46 -174q30 -54 103 -61q11 -1 21 -1q25 0 45 7q28 10 51 45q-35 25 -48 59t-10 62t15 70q18 45 26 61q89 177 129 246q38 64 118 190t118 191q100 165 241 424q27 51 47 153q3 15 4 29q0 55 -51 90q-157 120 -315 120 q-47 0 -94 -11q-329 -73 -561 -326q-107 -117 -148 -307z" />
<glyph unicode="J" horiz-adv-x="1300" d="M10 -344q27 -128 150 -170q71 -24 137 -24q99 0 184 57q88 65 148 133q143 168 229 375q142 348 184 462q107 281 165 431t155 388t190 437.5t193 388.5q21 40 41 96q14 39 -1 59t-56 17q-26 0 -62 -20q-167 -103 -305 -197q-187 -122 -387 -209q-141 -65 -213 -108 q-53 -30 -111 -91q-31 -31 -31 -68q0 -22 11 -46q15 -37 49 -37q12 0 25 4q-4 30 2.5 54.5t25 45t34.5 33t44 31.5q66 43 109 61q249 104 565 320q8 6 25.5 14.5t23.5 11.5q0 -20 -2 -26l-37 -66q-180 -286 -309 -604l-553 -1356q-90 -232 -195 -372q-37 -49 -112 -113 q-23 -20 -49 -20q-28 0 -58 24q-53 40 -63 123q-5 34 -5 68q0 119 58 227q193 359 463 594q27 23 114 90q-53 0 -88 -14.5t-73 -43.5q-252 -193 -412 -385q-106 -127 -170 -276q-43 -106 -43 -205q0 -48 10 -94z" />
<glyph unicode="K" horiz-adv-x="1339" d="M0 -178q33 -24 66 -24q35 0 69 28q145 114 244.5 221.5t159.5 241.5q22 51 82 177.5t88 197.5q24 56 61 89t100 50q3 -5 11 -14.5t12.5 -17.5t5.5 -15q9 -62 9 -100q0 -13 -1 -23q-4 -33 -41 -324q-5 -33 -5 -66q0 -176 143 -356q32 -41 90 -53q20 -4 39 -4q34 0 63 14 q11 7 22.5 19t12.5 22q2 9 -9 24.5t-20 16.5q-67 11 -84 103q-18 87 -18 175v25q3 82 13 231t13 197v18q0 148 -108 212q-4 2 -8 18q18 16 65 53q186 147 355 334q325 375 526 949q12 36 14 55q8 22 3.5 47t-29.5 37q-26 12 -49 12q-28 0 -50 -18q-14 -11 -37 -56 q-142 -324 -180 -409q-259 -563 -719 -944q-1 -1 -14 -13.5t-18 -16t-18.5 -7.5t-27.5 -2q4 23 13 45.5t23.5 53t19.5 42.5q9 25 30 70.5t27 60.5q27 63 64 139q18 38 59 131q11 22 33 69t33 69l63 129q1 2 31 54t37 87q-50 -13 -66 -21q-83 -54 -137 -145 q-129 -213 -189 -332q-75 -149 -208.5 -421t-176.5 -359q-65 -132 -100 -199.5t-96.5 -175t-125 -191.5t-136.5 -159q-7 -7 -29 -51z" />
<glyph unicode="L" horiz-adv-x="1560" d="M0 266q9 -7 21 -18t19 -16.5t13 -6.5q65 -9 100 -9q14 0 23 1q23 4 45 4q78 0 135 -45l86 -61q212 -150 471 -168q25 -2 50 -2q292 0 477 252q17 23 28 59q3 9 3 16q0 25 -33 33q-16 5 -31 5q-40 0 -74 -34q-12 -12 -50 -49t-60 -57q-110 -100 -237 -100q-40 0 -81 10 q-76 17 -133 49q-100 54 -168 109q-109 86 -242 104q-8 1 -28.5 4.5t-38.5 5.5q19 17 52 48t50 46q183 157 324 375q6 11 88 137q351 545 438 674q23 34 51 69t66.5 79.5t56.5 66.5q5 6 13.5 11.5t22.5 12.5l18 9q27 -62 31 -84q1 -6 1 -14q0 -21 -6 -53q-29 -153 -115 -261 q-29 -35 -63.5 -73.5t-75.5 -83t-65 -70.5q-14 -14 -47 -55q65 20 73 24q40 17 68 37q265 206 321 504q4 21 4 44q0 36 -10 77q-18 78 -104 84q-9 1 -17 1q-71 0 -137 -44q-103 -65 -186 -176q-405 -540 -537 -723q-11 -16 -56.5 -77.5t-60.5 -82t-55.5 -75.5t-61 -81.5 t-57.5 -74.5t-64 -79.5t-61 -71.5t-67 -75z" />
<glyph unicode="M" horiz-adv-x="1794" d="M2 31q-7 -40 8 -58t56 -24q12 -2 22 -2q33 1 56 17q30 22 57 67q294 512 635 968q181 243 378 418q9 7 33 23t41 28q-24 -69 -28 -79q-178 -374 -228 -476q-38 -76 -116.5 -225t-116.5 -225q-2 -3 -27 -66q9 -15 14 -20q18 -13 25 -15q28 -8 52 -8q22 0 40 7q38 14 72 61 q95 139 217 261.5t287 260.5q10 8 36 24.5t41 26.5l-36 -106q-86 -217 -105 -268q-26 -77 -31 -129q-2 -14 -2 -27q0 -61 38 -107q46 -55 126 -61q14 -1 28 -1q82 0 138 36q13 9 48.5 33.5t59.5 43t44 37.5q89 86 311 312q43 46 78 96q4 6 5.5 14.5t3 24.5t3.5 29 q-15 -10 -40.5 -25t-35.5 -23q-20 -18 -60 -54.5t-61 -53.5q-232 -194 -385 -317q-3 -2 -14.5 -12t-16.5 -13.5t-15.5 -9.5t-20.5 -7.5t-21 -0.5q-11 19 -13 40.5t1.5 35.5t11.5 38q17 54 55 169.5t56 176.5q37 136 45 205q1 8 1 16q0 56 -73 64q-10 1 -20 1q-51 0 -105 -34 q-201 -129 -348 -270q-2 -2 -16 -17t-20 -20t-20.5 -15t-29.5 -16l37 74q149 291 234 545q23 67 26 90q2 12 2 22q0 61 -76 64q-57 0 -102 -45q-31 -30 -126 -119.5t-156.5 -151.5t-116.5 -126q-69 -80 -140 -171.5t-161 -212t-133 -176.5l-62 -79q-1 1 -4 2.5l-6 3t-6 2.5 q92 219 282 629.5t273 603.5q-47 18 -71 18q-4 -1 -8 -1q-24 -4 -50 -36q-68 -87 -101 -151q-186 -349 -309 -604q-130 -272 -240 -533q-76 -181 -104 -397z" />
<glyph unicode="N" horiz-adv-x="1304" d="M2 160q-3 -13 -3 -24q0 -58 73 -68q15 -2 29 -2q74 0 112 59q83 130 131 211q210 351 408 602q151 192 309 311q10 7 36 23t44 28q-4 -28 -12.5 -52.5t-23 -53.5t-18.5 -39q-179 -385 -237 -625q-32 -140 -32 -233q0 -17 1 -33q9 -99 109 -114q20 -2 39 -2q76 0 145 38 q105 64 195 168q109 121 317 371q30 35 66 94q3 4 4 11t2 19.5t2 22.5q-47 -19 -51 -22q-11 -11 -64 -72q-71 -73 -214 -219t-214 -219q-61 -64 -145 -96q0 13 -1 28.5t-1 25t2 17.5q7 28 22.5 95.5t28 116.5t26.5 94q33 105 97.5 295t87.5 260q26 85 31 139v10q0 36 -20 57 t-57 21h-9q-57 -7 -99 -33q-146 -101 -251 -187t-193 -188q-179 -206 -332 -434q-4 -6 -10.5 -13.5t-14.5 -16t-12 -13.5q21 102 57 187q141 329 285 657q35 84 43 117q3 11 -2 27t-14 20q-9 5 -26.5 2t-24.5 -10q-32 -32 -58 -76q-302 -489 -499 -1053q-45 -138 -64 -229z " />
<glyph unicode="O" horiz-adv-x="1112" d="M10 571q-10 -66 -10 -128q0 -119 37 -222q63 -173 239 -207q51 -9 100 -9q169 0 314 112q200 152 322 397q52 104 52 206q0 100 -50 200q-27 55 -56 112q13 13 58 53q10 10 42 40.5t52.5 52.5t38.5 45q127 158 127 352q0 74 -38.5 130.5t-102.5 76.5q-49 14 -98 14 q-16 0 -33 -2q-143 -15 -291 -135q-325 -259 -559 -684q-107 -194 -144 -404zM236 350q-4 46 -4 91q0 128 34 241q167 536 600 940q51 48 125 86q33 17 59 17q8 1 15 -1q31 -6 61 -43q38 -51 43 -94q4 -31 4 -59q0 -44 -10 -82q-51 -198 -252 -346q-86 55 -110 62 q-9 3 -22 3q-23 0 -58 -8q38 -30 57 -51q5 -4 49 -55q-13 -12 -45.5 -41.5t-52.5 -48.5q7 -2 17.5 -6t17.5 -6t12 -1q18 4 80 27q44 -47 64 -119q14 -49 13 -94q0 -22 -3 -43q-15 -111 -78 -205q-126 -195 -305 -328q-52 -39 -98 -57q-34 -13 -61 -13q-15 0 -28 4 q-36 12 -67 58q-48 76 -57 172z" />
<glyph unicode="P" horiz-adv-x="1443" d="M4 4q-7 -30 2 -45.5t39 -26.5q32 -12 60 -12q76 0 120 88q8 16 36.5 78.5t41.5 90t37.5 73.5t46.5 82q146 244 313 479q241 333 514 592q76 70 250 207q55 43 101 43h8q1 -8 3.5 -24t2.5 -22.5t-2 -19.5q-37 -117 -68 -168q-156 -256 -405 -440q-2 -1 -9.5 -6.5t-10 -7 t-9 -6t-10 -6t-10 -4.5t-11 -4t-11 -3t-12.5 -2h-13q-19 2 -32.5 -7.5t-10.5 -29.5q1 -9 13.5 -19.5t25.5 -15.5q31 -10 63 -4q58 13 100 35q347 195 516 498q39 65 62 149q7 28 7 53q0 45 -24 79q-38 52 -122 61q-17 2 -34 2q-84 0 -159 -49q-106 -69 -184 -136 q-278 -234 -559 -587q-2 -3 -11.5 -15.5t-14.5 -18.5t-17.5 -14.5t-26.5 -13.5q147 341 164 383q12 29 50.5 114.5t63 146.5t42.5 124q-28 11 -53 11q-50 0 -87 -46q-64 -84 -108 -157q-61 -100 -123.5 -219.5t-102.5 -198.5t-109 -237t-89 -205t-100 -241.5t-89 -215.5 q-22 -49 -55 -162z" />
<glyph unicode="Q" horiz-adv-x="1275" d="M2 -229q3 -39 41 -45q9 -2 16 -2q28 0 41 26l6 19q33 79 134 96q36 7 68 7q76 0 134 -38q53 -33 88 -57q280 -177 602 -177q109 0 224 21q124 23 227 123q-16 7 -32.5 8t-24.5 -1t-26.5 -9t-22.5 -8q-147 -40 -286 -40q-225 0 -431 105q-5 2 -242 140q97 15 150.5 33 t105.5 53q89 57 170 178q178 257 258 540q36 122 36 231q0 102 -32 193q-10 31 -10 57q0 11 2 22q6 33 33 71q115 167 203 401q26 72 26 143v15q0 79 -45 126t-125 56q-26 3 -51 3q-102 0 -209 -50q-169 -81 -313 -248q-429 -504 -578 -1069q-44 -163 -44 -298q0 -36 3 -70 q17 -238 183 -340q1 0 14 -27q-10 -1 -24.5 -2.5t-25.5 -3t-20 -4.5q-119 -39 -162 -60q-63 -32 -63 -96q0 -11 2 -22zM342 500q44 361 254 768q76 150 211 362q91 152 223 260q94 77 182 103q30 10 55 10q27 0 49 -11q44 -22 56 -83q12 -54 12 -103q0 -35 -6 -67 q-23 -109 -77.5 -209t-141.5 -211q-10 9 -30.5 29.5t-31.5 29t-29 18.5t-36.5 8t-40.5 -13q63 -103 70 -117q12 -21 12 -41q0 -29 -26 -53q-26 -26 -76 -72q-14 -14 -68 -61q38 3 70 19t66 41.5t55 35.5q2 -8 8.5 -27.5t7.5 -28.5q3 -30 3 -62q0 -155 -73 -339 q-107 -267 -266 -453q-71 -87 -162 -145q-58 -40 -106 -40q-83 0 -133 122q-38 95 -38 217q0 54 7 113z" />
<glyph unicode="R" horiz-adv-x="1304" d="M2 -66q-6 -35 7 -50.5t48 -18.5h9q63 0 94 69q147 298 225 445q44 86 193 350q74 -33 129 -61q-10 -129 -11 -152q-10 -139 -10 -168q0 -159 133 -209q103 -40 212 -40q153 0 317 79q30 13 40.5 37t-4.5 37q-13 13 -28 14.5t-22.5 -2t-26.5 -14.5q-71 -42 -201 -53 q-6 -1 -12 -1q-63 0 -103 58q-49 71 -49 152l6 172q1 13 1 26q1 69 -19 99q-22 36 -105 71q-2 1 -7 8t-9 11q32 39 35 41q81 75 166 145q281 231 471 631q33 75 47 145q3 14 2 27q0 71 -86 90q-16 3 -31 3q-45 0 -90 -24q-8 -5 -29.5 -19t-32.5 -21t-28 -19t-30 -23.5 t-25 -23.5q-185 -185 -310 -340q-43 -51 -83.5 -106t-84.5 -122.5t-70 -110t-77 -127.5t-70 -116q-46 -78 -69 -112v6q0 66 39 178l258 680q16 49 45 127q9 26 9 46q-1 24 -13 40q-24 30 -84 31h-7q-85 0 -118 -72q-55 -128 -66 -160q-44 -122 -86 -248.5t-87 -275.5 t-72.5 -243.5t-79.5 -278t-72 -252.5q-15 -53 -27.5 -108.5t-28.5 -137t-22 -109.5zM643 817v25q15 26 58.5 103t63 110l58.5 99t66 108t63.5 95.5t71.5 100.5q144 188 260 281q48 42 76 51q11 4 22 6q10 -16 10.5 -35t-3 -28.5t-13.5 -31.5q-1 -3 -2 -5q-11 -21 -46 -88.5 t-59 -111t-50 -85.5q-145 -243 -371 -422q-23 -19 -205 -172z" />
<glyph unicode="S" horiz-adv-x="1187" d="M4 -150q-4 -29 -4 -54q0 -79 40 -128q52 -65 171 -76q13 -1 26 -1q45 0 97 8q197 34 334 192q211 244 286 524q30 105 33 217v18q0 75 -14 210v9q0 52 33 75q4 3 9 7t11.5 9t9.5 8q323 268 324 269q39 33 70 75q6 8 5.5 21.5t-5.5 23.5q-6 13 -21.5 17t-28.5 -4 q-8 -4 -17.5 -10.5t-20.5 -14.5t-17 -12l-332 -240q-3 -2 -32 -14q-9 9 -9 10q-8 23 -10 37q-12 94 -13 188q0 353 177 691q26 48 70 92q46 45 90 45q50 0 96 -60q40 -51 40 -121q0 -29 -7 -61q-22 -133 -101 -268q-4 -7 -49 -88q10 -20 12 -23q7 1 20 0.5t23 0.5t17 5 q27 14 49 46q120 172 129 385v12q0 85 -52 150q-56 69 -145 83q-30 5 -58 5q-114 0 -189 -76q-66 -63 -111 -131q-214 -356 -214 -729q0 -23 1 -46q3 -55 21 -227q2 -14 2 -26q0 -25 -8 -43q-12 -28 -44 -54q-107 -86 -205 -187t-212 -233q-165 -191 -224 -331 q-43 -104 -53 -175zM162 -205q9 86 49 164q64 114 151 231q133 181 345 383q8 8 61 50q4 -37 4 -76q0 -55 -8 -115q-58 -333 -270 -604q-79 -103 -179 -141q-36 -14 -64 -14q-31 0 -53 16q-37 26 -37 88q0 9 1 18z" />
<glyph unicode="T" horiz-adv-x="964" d="M2 1188q8 -54 42 -76q28 -18 76 -19q11 0 23 1q1 4 6.5 30t6.5 41q24 254 241 391q77 47 183 82q41 14 82 26t92 22.5t82 17t94 16t84 12.5t96.5 13t89.5 12q-14 -35 -16 -37q-31 -49 -103.5 -158t-109.5 -169q-316 -525 -516 -951q-92 -201 -183 -360.5t-204 -296.5 q-4 -4 -6.5 -11t-5.5 -16t-5 -14q29 -18 58 -18q36 0 71 28q134 102 223 192t146 204q10 21 182 368q21 41 89 181t114.5 230.5t95.5 176.5q65 116 195.5 323.5t173.5 280.5q24 42 56 61.5t79 24.5q77 8 285 39q45 9 92 27q37 12 37 37q0 5 -2 10q-6 24 -37 24q-8 0 -19 -2 l-18 -6q-20 -3 -123.5 -19.5t-159.5 -23.5q-22 -5 -50 -3t-50 17q-35 25 -70 25q-40 0 -82 -31q-40 -32 -96 -35q-20 -2 -64.5 -7t-68.5 -7q-330 -25 -627 -117q-191 -60 -315 -176q-121 -109 -158 -256q-8 -44 -8 -77q0 -15 2 -27z" />
<glyph unicode="U" horiz-adv-x="1931" d="M55 727q-12 -42 -12 -78q0 -39 14 -71q2 -5 7.5 -10t20 -12.5t21.5 -12.5v69q3 118 76 213q123 157 320 273l24 12q29 12 50 12q18 0 29 -8q23 -16 23 -61q0 -7 -1 -15q-3 -84 -33 -157q-67 -174 -141 -324q-28 -56 -92.5 -174t-94.5 -182q-47 -96 -80 -226 q-11 -40 -11 -79q0 -68 32 -136q49 -101 164 -116q34 -4 66 -4q148 0 247 88q129 112 188 190q103 133 385 524q29 38 39 50v-6q0 -23 -6 -61q-7 -43 -8 -48q-14 -109 -14 -174v-15q3 -118 116 -145q49 -9 91 -9q16 0 32 1q96 9 172 76q78 65 133 125l410 466q12 15 70 93 q1 2 10 47q-9 -1 -18 -4t-15.5 -5.5t-14.5 -7.5l-12 -7.5t-11.5 -9.5t-10 -9.5l-10.5 -10.5l-10 -10q-277 -272 -302 -295q-83 -78 -301 -266q-25 -21 -35.5 -29t-34.5 -20t-48 -16q-16 40 -15 86q0 40 11 86q48 182 79 264q41 107 121 307.5t94 234.5q7 18 14 39.5t14.5 47 t12.5 40.5q-32 21 -59 21q-28 0 -51 -23q-31 -27 -43 -51q-21 -41 -52 -85.5t-55.5 -74.5t-65.5 -79t-61 -74q-58 -71 -307 -381t-385 -475q-22 -28 -51.5 -59.5t-49 -51t-58.5 -57t-54 -51.5q-7 -7 -17 -12.5t-24.5 -12t-21.5 -10.5q-39 53 -39 123q0 23 4 47 q26 132 57 213q19 50 43 105t55.5 123t47.5 104q7 16 38.5 84.5t44 98t30.5 83t28 98.5q13 79 14 143q0 19 -2 37q-4 66 -43 102.5t-106 41.5q-13 1 -25 1q-73 0 -135 -30q-186 -89 -309 -235q-74 -90 -103 -193z" />
<glyph unicode="V" horiz-adv-x="1208" d="M4 145q13 -143 137 -176q86 -24 161 -24h17q163 5 324 149q262 230 490 537q224 303 321 657q62 236 62 439q0 93 -13 178q-9 63 -35 127q-24 56 -62 68q-12 4 -28 4q-31 0 -73 -17q58 -29 75 -55t23 -95q4 -29 4 -86v-31q0 -453 -256 -866q-185 -297 -465 -583 q-99 -99 -268 -246q-67 -59 -133 -72q-57 48 -57 137q0 19 3 41q10 96 35 168q56 150 158 389q27 64 82.5 179t75.5 159q1 3 8.5 18t9.5 21t5 19t1.5 24.5t-6.5 24.5q-23 9 -45 9q-44 0 -78 -40q-43 -56 -51 -69q-179 -292 -229 -385q-65 -126 -160 -359q-37 -87 -37 -183 q0 -30 4 -61z" />
<glyph unicode="W" horiz-adv-x="1654" d="M12 127q18 -68 70 -100q34 -21 74 -21q21 0 45 6q46 9 110 54q31 20 84 77l289 346l33 33q-3 -19 -8 -38.5t-12.5 -41.5t-10.5 -34q-3 -11 -9.5 -37.5t-10 -42t-7 -37.5t-4.5 -41v-14q0 -72 37 -116q41 -48 123 -59q38 -5 74 -5q124 0 231 63q134 80 256 211 q234 255 379 573q117 247 141 504q5 52 4 104q0 347 -210 666q-22 36 -80 82q-46 37 -96 37q-19 0 -39 -6q-6 -1 -12.5 -5t-16.5 -10.5t-19 -11.5q85 -4 117.5 -22.5t75.5 -86.5l31 -49q90 -165 131 -389q19 -99 19 -187q0 -36 -3 -69q-36 -293 -164 -526 q-162 -296 -430 -549q-78 -73 -207 -168q-12 -9 -26 -17t-35.5 -18t-28.5 -14q-36 36 -36 85q0 8 1 17q13 87 25 121q31 88 164 428q15 38 44 111.5t44 111.5q5 10 3 27.5t-9 26.5q-12 15 -31.5 19t-38.5 -5q-32 -19 -55 -49q-88 -112 -193 -252q-214 -274 -544 -604 q-4 -4 -18 -17.5t-21 -20t-22 -14t-32 -10.5q0 10 -0.5 25t-0.5 25.5t1 19.5q3 22 9 46l10 40t16 46t15 38t19 44.5t17 39.5q30 72 71.5 148t98.5 170.5t84 142.5q97 178 232 418q11 22 11 38q0 15 -9 25q-15 17 -40 17q-14 0 -30 -5q-23 -8 -49 -30q-49 -49 -72 -78 q-305 -395 -512 -860q-30 -71 -47 -136q-12 -48 -12 -95t12 -95z" />
<glyph unicode="X" horiz-adv-x="1253" d="M0 -35q19 -14 36 -14q23 0 44 26q25 28 88 113q90 118 255 339t204 273q7 8 49 46l29 -80q82 -226 229 -441q41 -57 106 -106q34 -25 62 -25q32 0 59 31q-68 86 -86 115q-12 19 -23.5 41.5t-24.5 50.5t-21 43q-55 119 -87 247.5t-61 305.5q-3 15 -3 29q0 47 32 85 q33 41 69 88t78.5 104t67.5 89q216 285 311 414q2 3 15 20.5t17.5 25t9 23t3.5 29.5q-17 11 -35 11q-23 0 -47 -19q-59 -45 -94 -82q-64 -73 -192 -219.5t-193 -218.5q-10 -13 -33 -39t-37 -43q-13 26 -17.5 50.5t-4 55.5t-0.5 41q-1 7 -3.5 31.5t-4 33.5t-4.5 30.5t-5 33 t-6.5 30.5t-9 32t-11 29t-13.5 30q-49 95 -138 109q-27 4 -51 4q-85 0 -149 -43q-196 -136 -306 -410q-5 -16 -5 -29q0 -34 38 -49q21 -9 40 -9q12 -1 23 3q30 8 40 39q30 87 86 158.5t143 154.5q4 4 49 31q10 -34 12 -43q45 -163 91 -489q1 -14 1 -27q0 -71 -40 -133 q-190 -291 -566 -877q-7 -12 -16 -49z" />
<glyph unicode="Y" horiz-adv-x="1269" d="M2 -586q14 -113 127 -116h4q19 0 72 8q101 22 178 106q136 144 215 246q221 297 399 664q187 383 400 847q34 74 149 353q20 49 29 110q1 7 1 13q0 37 -46 51q-21 7 -42 7q-58 0 -112 -52q-352 -331 -502 -459q-41 -34 -93 -74t-84.5 -63.5t-100.5 -72t-90 -64.5 q-2 -1 -6 -4q-50 -34 -90 -37h-4q-9 60 -9 73q0 65 21 144q12 42 104 327q3 8 8 21t8 21t6.5 21t3 21t-2.5 21q-20 13 -38 13q-20 0 -38 -15q-22 -19 -43 -51q-142 -214 -193 -457q-7 -34 -7 -82q0 -19 1 -41q3 -100 95 -115q35 -4 64 -4q45 0 77 10q118 44 205 101 q188 117 446 360q10 10 88 80q-16 -42 -16 -43q-313 -641 -393 -809q-16 -34 -59 -125.5t-63 -134t-59 -122.5t-66.5 -132.5t-64 -119.5t-71.5 -126q-19 -32 -45 -70.5t-43 -63t-51 -71t-46 -63.5q-15 -20 -26 -32t-30.5 -23t-41.5 -11q-30 43 -37 67q-3 12 -3 29q0 16 3 36 q13 111 84 243q157 288 346 504q22 25 49.5 52t63 58.5t53.5 49.5l57 55q-16 6 -32 6q-32 0 -66 -22q-94 -66 -135 -107q-254 -263 -444 -631q-21 -38 -37 -88q-29 -86 -29 -169q0 -24 2 -48z" />
<glyph unicode="Z" horiz-adv-x="1679" d="M14 122q30 -54 117 -75q28 -7 65 -7q67 0 162 23q221 59 408 222q34 28 74 28q19 0 39 -6q101 -35 217 -52q109 -16 210 -16h12q106 1 222 7q124 11 199 63q12 8 22 23t11 30q2 5 -1.5 13t-13 21t-12.5 18q-201 -89 -368 -89q-21 0 -42 1q-129 9 -240.5 38.5t-164.5 71.5 l16 25q34 44 108.5 141.5t130 171.5t105.5 144q105 146 555 792q25 38 33 57q11 23 2 42.5t-33 23.5q-29 6 -54.5 5.5t-47.5 -5.5q-236 -42 -422 -86q-172 -38 -251 -54q-78 -15 -219 -33q-120 -15 -223 -15h-34h-8q-47 0 -123 -21q-215 -62 -275 -281q-7 -26 -7 -54 q0 -23 5 -48q1 -13 13 -28t26 -23q5 -4 13.5 -4.5t21.5 1t19 1.5q0 45 2 63q2 128 83.5 217.5t208.5 102.5q56 4 164 8q27 2 83.5 4t100.5 5.5t83 10.5q106 20 309.5 62.5t232.5 48.5q11 2 82 10q-22 -38 -26 -41q-477 -569 -813 -1063q-24 -35 -84 -108q-5 0 -11.5 -0.5 t-9.5 -0.5t-6 1q-5 0 -14.5 2t-14.5 2q-61 8 -119 8q-185 0 -335 -80q-135 -74 -179 -180q-18 -45 -18 -81q0 -32 14 -57zM172 221q25 65 101 117q75 52 161 66q31 5 62 5q52 0 102 -16q-94 -121 -212 -192q-102 -61 -183 -62q-13 0 -25 2q-14 17 -14 41q0 18 8 39z" />
<glyph unicode="[" />
<glyph unicode="\" horiz-adv-x="1236" d="M207 1925q6 -25 35 -119q34 -100 109 -325.5t116 -343.5q298 -860 358 -1031q42 -118 105 -219q73 20 92.5 49t-0.5 91q-25 83 -78.5 241t-62.5 185q-235 702 -443 1200q-50 121 -127 278q-18 37 -55 66q-12 10 -26 4t-19 -21q-10 -27 -4 -55z" />
<glyph unicode="]" />
<glyph unicode="^" horiz-adv-x="1132" d="M205 1244.5q-1 -15.5 8 -35.5t31 -35q25 15 30 20q114 177 162 258q16 27 40.5 79t31.5 66q5 8 13 17t20.5 23t21.5 24q43 -69 53 -90l199 -391q2 -5 8.5 -20t10.5 -21.5t11.5 -17t18 -16t23.5 -7.5q64 59 26 168q-55 153 -110 274q-31 69 -94 196t-88 179l-58 6 q-87 -62 -155 -213q-20 -44 -162 -336q-3 -7 -12.5 -25.5t-15 -32.5t-7.5 -28q-5 -26 -6 -41.5z" />
<glyph unicode="_" horiz-adv-x="1716" d="M204.5 127q-0.5 16 12.5 25q44 25 80 30q40 5 184.5 26.5t235.5 29.5l59 -2q35 2 81.5 1t107 -2.5t63.5 -1.5q94 -2 281 -2q9 0 36 1.5t45.5 2t41 -4t34.5 -13.5q17 -11 35 -72q13 -26 8 -39l-6 -8q-6 -4 -57 -12l-217 -10l-418 1q-418 1 -418 -1l-123 6q-31 3 -51 20 q-14 9 -14.5 25z" />
<glyph unicode="a" horiz-adv-x="1187" d="M-10 274q-2 -16 -2 -31q0 -51 24 -83q31 -40 105 -54q41 -9 81 -9q117 0 220 75q51 38 164 143q8 7 25 26t30 32q0 -10 -0.5 -22t-0.5 -19t1 -13q6 -140 151 -149h10q98 0 179 55q105 73 229 205q140 152 211 223q37 37 85.5 80t80.5 74q45 45 68 76q3 3 12 51 q-72 -56 -80 -62q-130 -109 -347.5 -288t-320.5 -265q-15 -15 -41 -30q-6 -4 -21 -10t-24 -11q-2 13 -2 29q0 44 17 102q37 135 157 365q8 16 23.5 47.5t22.5 46.5q-46 42 -86.5 42t-75.5 -42q-23 -26 -107 -149q-2 -3 -11.5 -17.5t-14.5 -20.5t-17 -16.5t-26 -17.5 q29 73 32 86q2 11 8.5 37t10 46t4.5 38q0 95 -94 110q-26 4 -53 4t-54 -4q-135 -25 -254 -137q-187 -181 -295 -438q-21 -49 -24 -105zM205 315q68 286 291 512q54 57 133 76q40 -13 43 -59q1 -11 1 -22q0 -33 -7 -66q-103 -349 -394 -514q-5 -2 -24 -11t-31 -14 q-17 26 -17 59q0 18 5 39z" />
<glyph unicode="b" horiz-adv-x="1107" d="M61 188q1 -45 27.5 -79.5t71.5 -49.5q51 -17 103 -17q23 0 46 3q140 22 234 154q107 147 141 319l18 113q13 1 73 3t91 7q280 42 633 180q14 6 76 41q24 17 37 43q7 19 -6 41q-6 11 -33 6q-8 -2 -43 -22q-14 -6 -55 -28t-66 -30q-264 -88 -489 -129q-45 -9 -84 -9 q-89 0 -154 44q-31 21 -64 21q-18 0 -36 -6q-42 -13 -42 -41q0 -13 9 -29q26 -47 26 -71q0 -9 -2 -19q-54 -263 -208 -422q-17 -17 -27 -25.5t-31 -17t-47 -8.5q-1 9 -5 40t-4 38.5t1 37.5q30 270 182 508q22 36 62 39q41 4 86 18.5t75 29t78 40.5q567 313 907 922 q25 45 35 78q19 55 23 84q2 13 2 25q0 88 -96 104q-22 3 -43 3q-62 0 -117 -28q-135 -71 -189 -110q-561 -403 -923 -985q-187 -302 -260 -644q-13 -63 -13 -142v-30zM557 950q14 37 21 47q343 550 856 957q41 35 86 61q3 2 28 6q9 -18 9 -38q0 -28 -17 -62 q-72 -152 -121 -227q-229 -347 -624 -613q-119 -81 -238 -131z" />
<glyph unicode="c" horiz-adv-x="833" d="M0 219q3 -129 129 -172q50 -16 100 -16q35 0 70 8q84 19 193 98q105 76 184 140t153.5 137.5t118 120.5t138 153.5t153.5 171.5q7 9 25 53q-15 -1 -27 -4.5t-23.5 -11.5t-16.5 -11.5t-17.5 -15.5t-14.5 -14q-88 -81 -161.5 -141.5t-161.5 -141.5q-221 -206 -471 -374 q-4 -3 -19 -14t-21.5 -15t-19.5 -10.5t-24.5 -8t-24.5 0.5q-16 31 -16 73q0 39 14 88q66 247 166 416q9 15 19 29t24.5 30t22.5 25t27 28.5t24 24.5q5 6 13.5 9.5t26.5 7.5t25 6q3 -23 3 -46q0 -49 -13 -93q-19 -66 -63 -150t-58 -121q16 -5 30 -5q38 0 60 38 q81 126 121 322q2 14 3 27q0 77 -97 87q-19 3 -39 3q-61 0 -119 -29q-125 -66 -194 -152q-162 -198 -230 -448q-12 -50 -12 -103z" />
<glyph unicode="d" horiz-adv-x="1478" d="M63 389q-2 -18 -2 -35q0 -130 148 -143q18 -1 37 -1q129 0 235 75q32 24 66.5 52.5t75 64.5t63.5 55q5 4 45 24v-112q2 -83 39 -130t119 -67q47 -12 94 -12q110 0 217 67q133 83 250 191q106 94 208.5 204t194.5 195q9 8 18.5 18.5t20.5 24t17 19.5l-17 18 q-51 -7 -116 -57q-22 -17 -34 -26t-14 -10t-3.5 -2l-3 -2t-13 -9.5t-33.5 -26.5q-74 -58 -225.5 -179.5t-230.5 -183.5q-120 -92 -218 -120q-23 31 -23 77q0 16 3 35q23 167 111 334q119 217 202 336q75 106 383 512q53 69 103 88q12 -20 12 -45.5t-12 -56.5 q-45 -96 -66 -127q-150 -214 -215 -293q-44 -53 -94.5 -109.5t-116 -127t-96.5 -105.5q-5 -6 -16 -17.5t-17 -18.5t-11.5 -20.5t-6.5 -29.5q6 -1 18 -5.5t22 -7t17 -0.5q49 16 84 43q96 81 148 140q250 278 415 581q35 68 47 105q15 41 15 73q0 38 -21 63q-32 39 -104 39 q-14 0 -29 -1l-29 -6q-90 -13 -172 -95q-159 -155 -233 -239q-314 -361 -483 -653q-23 -44 -43 -62q-214 -183 -308 -252q-63 -47 -123 -84q-4 -2 -15.5 -9t-15 -9t-15 -7.5t-15.5 -6t-16 -3.5t-17 0q-17 39 -18.5 52t4.5 41q43 208 176 378q28 35 82 78q31 22 57 22 q12 0 23 -5q13 -46 13.5 -61t-11.5 -58q-9 -30 -29.5 -91t-29.5 -91q-1 -2 -1 -10q0 -16 3 -54q43 33 45 37q86 114 102 264q1 14 2 26q0 47 -22 69q-26 30 -93 32q-14 1 -28 1q-137 0 -238 -107q-157 -160 -235 -422q-2 -4 -7 -29z" />
<glyph unicode="e" horiz-adv-x="837" d="M0 248q0 -38 22.5 -65t59.5 -38q44 -12 102 -16q151 6 265 82q224 148 311 219q79 60 197.5 167t230.5 202q18 14 25 20.5t18.5 26t15.5 43.5q-78 -40 -88 -47q-201 -140 -211 -148q-122 -90 -195 -132.5t-192 -129.5q-86 -62 -227 -143q-14 -9 -19.5 -12t-21.5 -9.5 t-24.5 -4.5t-28.5 5q-12 27 -12 59.5t4.5 53t15.5 59.5q14 53 63 78q96 54 160 105q105 79 172 227q18 37 18 63q0 62 -98 66h-13q-86 0 -163 -64q-271 -222 -371 -524q-16 -60 -16 -143zM344 629q8 47 22 74t68 96l20 28t23 31t23 26t31.5 25.5t35.5 16.5q7 -15 9 -29 t-2.5 -27.5t-8.5 -21t-12 -21.5q-71 -131 -209 -198z" />
<glyph unicode="f" horiz-adv-x="849" d="M-324 -213q-4 -26 -4 -50q0 -70 37 -118q50 -64 156 -76q27 -3 53 -3q203 0 336 179q148 195 219 414q37 110 37 213q0 41 -6 80q-2 17 -8 84q29 8 86.5 21.5t99 25t78.5 25.5q225 83 450 233q51 34 105 82q5 4 8 9t9 20.5t9 21.5q-49 -13 -57 -18q-18 -10 -52.5 -33 t-53.5 -33q-268 -159 -514 -225q-79 -21 -151 -21q-86 0 -163 29q23 32 57 80.5t61.5 86.5t51.5 71q27 36 82.5 106.5t81.5 106.5q13 16 78 92.5t94 124.5q-25 16 -50 16q-38 0 -77 -33q-5 -5 -27.5 -24t-30.5 -26t-27 -24t-29.5 -27.5l-25 -25t-26.5 -28.5 q-301 -353 -428 -516q-158 -208 -295 -424q-132 -204 -164 -416zM-106 -225q21 106 59 209q50 140 186 354q55 88 117 174q2 3 47 53q52 -60 59 -153q1 -12 1 -24q0 -84 -31 -191q-74 -249 -269 -447q-17 -17 -36.5 -33t-47 -35.5t-40.5 -29.5q-49 31 -49 87q0 17 4 36z" />
<glyph unicode="g" horiz-adv-x="1089" d="M-393 -719q-1 -8 -1 -16q0 -100 107 -117q33 -6 64 -6q86 0 157 45q82 55 158 125q167 161 295 375q7 11 50.5 82.5t55 91t48 80t54 91.5t46.5 81t51.5 92.5t44.5 85.5q44 88 106.5 149.5t151.5 104.5q119 60 484 254q5 2 17.5 7.5t19 9t16 10t15.5 15.5t9 21 q-8 4 -16.5 5.5t-15 2.5t-15.5 -1t-13 -2.5t-14 -5t-12 -5t-13 -6.5l-11 -6q-89 -42 -254 -122.5t-238 -115.5q-11 -6 -57 -20q10 19 34 64t34 67q35 74 131 289q11 24 11 42q0 21 -15 35q-19 17 -47.5 18t-51.5 -16q-9 -6 -18 -14.5t-20.5 -21t-16.5 -17.5 q-143 -149 -305 -260q5 15 15 46t15.5 51.5t8.5 39.5q2 11 2 20q0 31 -17 52q-22 28 -67 33q-10 1 -20 1q-76 0 -146 -40q-124 -69 -209 -207q-21 -38 -27 -61q-5 -17 -5 -32q0 -21 9 -39q14 -31 50 -50q34 -16 82 -23q21 -3 41 -3q93 0 188 52q59 33 162 93 q-5 -16 -7 -26.5t-3 -12.5q-6 -11 -30 -48.5t-34 -58.5q-82 -179 -281 -315q-364 -252 -593 -590q-61 -88 -123 -225q-31 -69 -37 -148zM-223 -760q-6 23 -6 47q0 48 24 99q60 137 111 221q157 254 479 530q7 -20 6 -22q-19 -33 -75.5 -133t-84 -147.5t-75.5 -126.5 t-91 -143.5t-88 -125.5q-35 -47 -131 -152q-7 -7 -69 -47zM350 647q-13 23 -13 51q0 44 34 99q42 70 99.5 113.5t119.5 50.5q7 -10 11 -21.5t5.5 -19t-1.5 -22t-4.5 -19t-7.5 -22t-7 -19.5q-12 -37 -12.5 -49.5t10.5 -47.5q-79 -54 -126 -73.5t-108 -20.5z" />
<glyph unicode="h" horiz-adv-x="1204" d="M-82 109v-6q0 -76 76 -87q31 -5 56 -5q33 0 56 9q70 26 138 84q37 31 103 96t99 93q39 35 195 170q5 4 13 8t22 10t24 11q-29 -130 -30 -134q-29 -171 -31 -217v-11q0 -104 115 -112q9 -1 17 -1q78 0 144 49q78 55 156 127q73 68 155.5 160.5t127 147t139.5 173.5 q19 24 141 182q6 9 12.5 30t8.5 27q-22 4 -40.5 -2.5t-27 -13.5t-24.5 -23q-24 -24 -70.5 -72t-69.5 -71q-185 -185 -557 -553q-7 -7 -16.5 -14t-24 -16.5t-26.5 -18.5l14 121q3 24 9 71.5t9.5 84.5t4.5 71q0 55 -33 82q-25 21 -64 21q-11 0 -24 -2q-38 -6 -80 -29 q-123 -67 -180 -109q-15 -11 -279 -219q-8 -7 -53 -37q-8 20 -8 23q90 222 133 317q3 7 9.5 14.5t12.5 12t16.5 12t14.5 10.5q15 10 70 45t82 56q385 319 645 811q43 81 59 180q3 19 4 36q-1 51 -33 80q-28 26 -70 26q-22 0 -48 -7q-78 -20 -136 -69q-119 -100 -194 -195 q-279 -341 -535 -793q-139 -249 -200 -475q-21 -75 -27 -159zM383 754q9 36 12 41q179 291 414 665q36 56 135 172q10 13 23 25.5t35.5 33t33.5 31.5q11 -38 11 -74q0 -52 -23 -100q-41 -84 -84 -149q-212 -314 -522 -619q-2 -3 -35 -26z" />
<glyph unicode="i" horiz-adv-x="628" d="M82 332v-6q0 -116 117 -133q34 -5 63 -5q69 0 113 25q108 59 151 98q162 150 262 258q29 32 41.5 46t16.5 18.5t6 7.5t16 19.5t41 46.5q11 12 34 36.5t40.5 44.5t32.5 39q5 5 7.5 12.5t7 24.5t7.5 27q-56 -27 -63 -33q-60 -50 -109 -94q-98 -87 -214.5 -168.5 t-211.5 -165.5q-70 -64 -151 -106q-1 11 -2.5 24.5t-2 17t0.5 11.5q9 34 30 127.5t35 142.5q14 45 46.5 130t35.5 93q1 3 4.5 12.5t4.5 13t2 11.5t-0.5 12.5t-5.5 10.5t-11 10q-19 14 -39 14l-41 -16q-34 -20 -67 -66q-137 -208 -177 -391q-17 -85 -20 -149zM414 1237 q10 -40 22 -45t49 16q7 4 17 23q48 62 112 151l56 76q-35 15 -65 15q-49 0 -81 -41q-13 -17 -27 -39t-24 -38t-25.5 -43t-23.5 -40q-13 -21 -10 -35z" />
<glyph unicode="j" horiz-adv-x="665" d="M-479 -674q-13 -32 -13 -57q0 -27 14 -47q28 -40 99 -43h3q15 0 63 8q79 18 161 96q104 96 195 258q131 231 221 508q30 91 88 144q30 29 103.5 103t115.5 112q105 91 230 201.5t229 201.5q1 1 18 13.5t22 18t13.5 20.5t12.5 34q-9 -2 -31.5 -4.5t-30.5 -7.5 q-31 -19 -86 -60q-109 -85 -242.5 -186t-242.5 -186l-86 -66q7 42 14 78q45 219 72 366q5 29 5 54q0 11 -1 22q-5 34 -31.5 44t-52.5 -13q-27 -27 -43 -64q-14 -30 -39 -108q-20 -65 -58 -183t-69 -215t-57 -184q-27 -89 -90 -155q-267 -298 -408 -516q-64 -96 -98 -187z M-324 -719q15 69 87.5 185t164.5 219q-57 -135 -113.5 -230t-138.5 -174zM479 1235q-15 -24 -15 -42q0 -21 19 -34q12 -8 25 -8q24 0 53 23q5 3 14 13t13 13q55 57 168 170l43 45q-57 36 -104 36q-49 0 -85 -40q-15 -15 -28.5 -31t-28.5 -37t-24 -33t-26.5 -39.5 t-23.5 -35.5z" />
<glyph unicode="k" horiz-adv-x="1212" d="M-184 -29q0 -6 1 -13.5t3 -14.5q54 -27 88 -27q8 0 16 2q38 8 72 66q39 68 127 235q155 299 278 479l58 74q45 -34 55 -47.5t14 -46.5q5 -29 5 -55q0 -11 -1 -21q-8 -189 -14 -287q-1 -12 -1 -23q0 -72 34 -108q39 -42 127 -45h17q113 0 214 72q109 82 248 197 q301 247 404 335q44 39 106 109q18 20 18 37t-20 29q-47 -12 -62 -19.5t-55 -40.5q-405 -320 -749 -547q-5 -3 -17 -11.5t-17.5 -11.5t-20 -7.5t-23.5 0.5q1 33 2.5 90.5t2.5 104.5t1 89q0 100 -11.5 131.5t-76.5 106.5q63 47 76 55q22 16 66.5 46.5t66.5 47.5 q170 132 268 355q10 25 13.5 38.5t1 34t-16.5 35.5q-22 24 -61 24q-20 0 -45 -7q-32 -8 -62 -25q-59 -34 -86 -59q-45 -41 -124.5 -117t-112.5 -107q-2 -2 -8.5 -9.5t-10 -9.5t-13 -4.5t-18.5 5.5q11 20 74.5 140t95.5 184q12 24 79 143.5t96 191.5q-29 19 -55 19 q-32 0 -60 -27q-28 -28 -53 -67q-148 -229 -193 -308q-172 -307 -508 -921q-32 -60 -66 -128t-75.5 -154t-63.5 -130l-6 -12l-6.5 -13t-5.5 -12.5t-5 -13.5t-3 -12.5t-2 -14.5zM510 831q117 158 224.5 276t232.5 208q-139 -326 -457 -484z" />
<glyph unicode="l" horiz-adv-x="747" d="M102 365q9 -169 183 -181q16 -1 32 -1q187 0 326 130q44 41 119.5 115.5t126 125.5t147 149t105.5 108q5 4 9.5 11t7.5 13t8 16.5t8 16.5q-12 4 -23 5t-18.5 0t-17.5 -6t-14 -8t-14.5 -11t-13.5 -10q-16 -14 -93 -85t-122 -106q-20 -16 -167.5 -143.5t-194.5 -159.5 q-77 -51 -142 -51q-29 47 -29 97q0 16 3 32q24 114 32 139q34 105 83.5 204.5t125.5 233.5q46 80 136 109q435 153 684 541q35 49 49 123q7 33 7 60q0 62 -35 97q-36 35 -102 35q-27 0 -59 -6q-99 -20 -211 -107q-170 -131 -323 -311q-188 -224 -338 -463 q-175 -280 -244 -506q-32 -93 -32 -178q0 -14 1 -28zM705 1196q126 225 310.5 434t293.5 250q18 -19 19 -47.5t-5 -50.5q-14 -94 -80 -183q-77 -105 -239.5 -227.5t-298.5 -175.5z" />
<glyph unicode="m" horiz-adv-x="1746" d="M104 369q2 13 11 45q74 246 241 487q15 22 22 31t23 21t33 14q7 1 13 1q30 0 49 -16q14 -12 4 -53q-10 -29 -33.5 -80.5t-30.5 -68.5q-16 -37 -47.5 -110t-46.5 -110q-3 -6 -27 -73q14 11 35 27t29 24q26 23 74.5 69t89 82t78.5 66q94 74 223 145q41 23 97 23h13 q86 -3 86 -95q0 -19 -10 -110l-12 -55q3 -2 16 -15q86 64 115 84q171 107 237 142q50 24 111 24q53 -2 80 -27t33 -77q3 -21 8 -123q16 -2 25 -3t22 4t19.5 8.5t18 10t17.5 9.5q70 37 110.5 57t48.5 23.5t28 14.5t67 40q33 20 89 63.5t73 55.5q28 20 68 30q7 1 17 -3.5 t15 -10.5q3 -6 2.5 -17.5t-4.5 -17.5q-34 -43 -59 -63l-451 -316q-58 -28 -116 -28q-35 0 -70 10q-52 15 -75.5 43t-26.5 78q-1 17 -1 36.5t0.5 45t0.5 41.5q-58 -26 -66 -31q-42 -28 -116.5 -81.5t-102.5 -72.5q-85 -57 -113 -71q-45 -20 -92 -23h-4q-62 0 -86 30 q-15 19 -16 52q0 20 6 45q6 26 21 73t20 64q0 1 14 86q-104 -47 -190 -133q-31 -32 -88.5 -91t-104 -106.5t-88.5 -89.5q-57 -57 -106 -98q-51 -40 -107 -40q-27 0 -55 9q-37 12 -50.5 34.5t-7.5 60.5z" />
<glyph unicode="n" horiz-adv-x="1386" d="M111 422q-8 -20 -8 -36q0 -42 57 -54q22 -5 42 -5q50 0 85 31q7 6 20.5 19.5t20.5 19.5q171 171 501 398q11 7 37.5 17.5t40.5 16.5l-14 -127q-3 -18 -10.5 -53.5t-12 -63.5t-6.5 -53q-1 -13 -1 -24q-1 -46 19 -72q24 -32 89 -43q34 -7 69 -7q78 0 156 36q132 64 225 125 q99 67 430 303q33 23 54 53q11 12 4 30t-25 21q-30 7 -55 -2q-3 -1 -74 -41q-44 -26 -268 -156.5t-344 -199.5q-5 -3 -14.5 -9.5t-16.5 -10t-16 -7t-19.5 -2.5t-21.5 6q0 5 -0.5 15.5t-0.5 18.5t1 14q2 16 10 72.5t10 88.5q1 14 1 26q0 142 -156 142q-84 -3 -154 -45 q-49 -31 -289 -188q-17 -10 -92 -66q-12 12 -14 15q21 49 71 176q24 64 35 119q4 26 -18 40.5t-45 0.5q-29 -19 -45 -48q-77 -118 -105 -172q-81 -160 -153 -319z" />
<glyph unicode="o" horiz-adv-x="743" d="M86 199q10 -80 64 -129t135 -58q22 -3 43 -3q128 0 204 112q108 155 148 330q6 26 16 120q27 8 72.5 21t58 16.5t42.5 13.5t41.5 16.5t38 21t50 30.5t60.5 41q51 34 98 88q18 18 18 36q0 21 -24 44q-63 -30 -74 -39q-63 -47 -94.5 -63.5t-83 -32.5t-108.5 -41 q-16 -7 -48.5 -18.5t-46.5 -16.5q0 11 -1.5 28.5t-0.5 26.5q0 12 3 48.5t1 56.5q-7 57 -38 82.5t-91 27.5q-68 0 -145 -43q-178 -103 -256 -301q-48 -119 -76 -256q-10 -42 -10 -93q0 -31 4 -66zM291 287q47 277 164 454q56 82 108 117q27 -55 27 -94q0 -10 -2 -20 q-9 -44 -68 -101q20 -33 22 -71q1 -9 0 -17q0 -27 -6 -50q-8 -30 -26 -69q-50 -109 -121 -237q-8 -13 -29 -35t-28 -31q-43 62 -43 125q0 15 2 29z" />
<glyph unicode="p" horiz-adv-x="1216" d="M-369 -768q18 -26 42 -37.5t46.5 -10.5t47.5 3q57 10 79 84q4 15 43 117q73 187 174.5 370t239.5 396q213 336 438 540q41 36 72 58q10 -13 10 -15q-84 -324 -291 -516q-3 -3 -23 -18.5t-28 -24.5q-20 -20 -14.5 -43.5t33.5 -30.5q39 -10 74 -10q14 0 28 2 q227 36 410 193q38 34 232.5 205t297.5 264q33 26 53 55q7 10 11 51q-9 0 -17 -1.5t-14 -3t-14 -5.5l-12 -6t-11.5 -7.5t-10 -8t-10.5 -9t-10 -8.5q-57 -45 -156 -124t-182 -144.5t-157 -122.5q-32 -24 -68 -46.5t-87.5 -53.5t-70.5 -43q-10 -7 -63 -19q64 64 80 84 q161 185 186 402q2 16 2 30q0 56 -31 84q-28 24 -75 24q-21 0 -45 -5q-52 -11 -123 -70q-177 -150 -361 -371q-7 -10 -22 -26.5t-17 -18.5q2 33 23 94q30 74 143 365q2 8 8.5 24.5t9 24t4.5 24.5t-5 27q-2 1 -8 6.5t-9 6.5q-18 6 -34 6q-53 0 -91 -66q-15 -29 -45 -82.5 t-48 -87.5t-42 -81t-43 -87q-135 -286 -289 -637q-98 -228 -176 -432q-15 -40 -29 -85.5t-30 -99.5t-25 -83z" />
<glyph unicode="q" horiz-adv-x="1257" d="M127 547q-3 -18 -3 -33q0 -87 93 -123q43 -17 96 -17q39 0 82 9q118 25 246 127q2 2 19.5 17t23.5 19.5t21 14.5t27.5 15.5t27.5 9.5l-43 -72q-118 -190 -121 -195q-191 -320 -268 -600q-21 -92 -25 -131v-11q0 -82 82 -101q48 -13 91 -13q15 0 30 2q106 10 205 113 q101 104 192 275q75 144 117 275.5t45 268.5q1 23 16 183q64 9 70 10q178 21 418 153q25 14 73 62q4 4 5 16.5t-2 18.5q-5 6 -15 11.5t-16 4.5q-38 -9 -72 -27q-182 -92 -391 -149q-36 -11 -65 -11q-25 0 -44 9q38 95 41 106q9 27 9 48q0 26 -14 44q-20 26 -68 26 q-9 0 -19 -1q-34 -6 -69 -27q-14 -9 -131 -94q-16 -10 -52 -28v92q-3 51 -24 76.5t-70 37.5q-30 8 -61 8q-71 0 -150 -42q-179 -100 -291 -322q-8 -17 -16 -55zM313 553.5q3 13.5 13 40.5q51 126 168 240q34 31 49.5 39.5t72.5 25.5q17 -36 19 -77q1 -11 1 -22q0 -32 -4 -68 q-5 -41 -5 -68v-9q-6 -4 -29.5 -22t-31 -24t-29 -21.5t-32 -22.5l-30 -20t-33 -20t-32 -17t-35.5 -17.5t-35 -13.5q-20 18 -25 40.5t-2 36zM596 -270q23 134 149 405t207 365q-20 -215 -111.5 -401t-244.5 -369z" />
<glyph unicode="r" horiz-adv-x="1034" d="M98 946q-11 -33 -11 -61q0 -71 69 -113q18 -18 56 -27.5t73.5 -11.5t96 -3.5t93.5 -4.5l-82 -137q-100 -164 -121 -269q-3 -18 -3 -34q0 -30 11 -52q17 -33 64 -53t106 -20q42 0 91 10q66 12 121 46t124 93q231 177 418 332q11 9 152 117q2 1 8 6t8 6.5t8 6.5t7 8t5 9.5 t3 10.5t0 12q-12 12 -25.5 13t-22 -3t-22.5 -12l-197 -121q-25 -16 -231.5 -150.5t-288.5 -185.5q-4 -3 -73 -32q18 76 26 96q6 17 14.5 36t19 42t15.5 35q3 6 28 55t34 76q13 32 13 57q0 69 -95 88q-21 4 -45 5t-53.5 0.5t-45.5 0.5q-9 1 -26 4.5t-19 4.5q44 70 135 210.5 t136 212.5q40 70 51 113q8 27 8 49q0 33 -18 57q-28 36 -91 35h-10q-54 -3 -116 -33q-46 -20 -99 -73q-162 -156 -260 -353q-11 -22 -39 -98zM285 883q-2 18 -3 35q0 37 10 75q14 56 33 91.5t54 93.5q69 114 123.5 169.5t115.5 77.5q6 -20 6 -41q0 -34 -16 -71 q-43 -97 -67 -135q-95 -150 -256 -295z" />
<glyph unicode="s" horiz-adv-x="661" d="M-268 -561q12 -152 159 -152q26 0 66 8q113 21 209 127q69 79 129 213q113 257 113 517q0 35 -2 69v15q0 39 13 67q16 34 54 64q126 93 332 260q83 65 235 194q19 15 29.5 25t22.5 30.5t16 45.5q-29 -9 -54 -26.5t-50.5 -41t-40.5 -33.5q-53 -37 -140 -102l-135 -92 q-94 -66 -141 -97q-11 -7 -34 -23t-37 -25.5t-36 -21.5t-43 -20q-18 121 -18 206q0 30 2 56q10 96 54.5 179t119.5 174q-24 16 -49 16q-24 0 -49 -14q-64 -33 -101 -70q-172 -163 -178 -399q-4 -69 -4 -126.5t4 -103.5v-15q0 -91 -67 -153q-85 -76 -185 -206 q-113 -139 -162 -291q-33 -111 -33 -213q0 -21 1 -41zM-132 -549l1 19q5 118 65 258q83 192 228 323q-11 -289 -150 -569q-23 -47 -49.5 -75.5t-71.5 -39.5q-8 9 -13 18.5t-6.5 23.5t-2.5 18.5t-1 23.5z" />
<glyph unicode="t" horiz-adv-x="638" d="M150 305q9 -56 39 -86t85 -37q29 -4 55 -4q90 0 156 45q98 69 148 123q145 164 416 485q24 31 38 56q3 4 1.5 13.5t-5.5 12.5q-23 17 -32 11q-33 -23 -60 -50q-44 -44 -125.5 -125t-148.5 -147t-127 -123q-41 -39 -176 -147q-8 -6 -19 -11.5t-26 -11.5t-23 -10 q-5 7 -8.5 14t-5.5 15t-3.5 13t-2 14.5t-0.5 12.5v14v13q3 120 59 242q23 50 97.5 206t113.5 242q24 50 57.5 77t85.5 34q56 10 76 24q15 10 25 27q-13 24 -38.5 29.5t-47.5 2t-45 9.5q15 37 32 70q21 39 63.5 117.5t63.5 117.5q3 7 9.5 18.5t10 18.5t8 19t4 20t-2.5 21 q-39 9 -58 9h-6q-18 -2 -40 -26q-50 -54 -72 -90q-115 -173 -180 -283q-44 -77 -125 -88q-46 -7 -193 -50q-1 0 -8.5 -2.5l-9 -3t-8.5 -3t-9 -4t-8 -5t-8 -6.5t-6 -7.5t-5.5 -9l-3.5 -10.5t-3 -13q28 -25 63 -29.5t63 3.5q28 10 68 18q32 7 57 6h11l-43 -90 q-150 -292 -205 -484q-23 -81 -23 -152q0 -34 5 -65z" />
<glyph unicode="u" horiz-adv-x="1257" d="M125 520q-2 -16 -2 -30q0 -112 125 -128q25 -3 48 -3q110 0 198 61q26 18 52 38t62.5 49t50.5 40q10 7 64 41q-16 -80 -18 -86q-12 -59 -12.5 -121t12.5 -127q15 -89 106 -107q28 -5 55 -5q80 0 144 48q107 82 174 152q60 60 91.5 92.5t76.5 80.5t90 95q28 32 176 189 q2 3 9 10.5t10 12t6.5 12.5t3 16.5t-4.5 19.5q-52 -16 -59 -20q-55 -42 -96 -80q-102 -89 -240.5 -201t-242.5 -204q-62 -54 -112 -95v27v27.5v23.5t1 24.5t2 21.5t2.5 22.5t3.5 19t4.5 21t5.5 18.5q8 23 35 99t41 118q22 61 29 101q7 35 -6 54t-49 27q-15 3 -30 3 q-50 0 -95 -37q-92 -85 -160 -138q-175 -138 -242 -186q-58 -43 -104 -43q-6 15 -7 30.5t2 31t6.5 26t10.5 27.5q17 40 37.5 85t46 100t39.5 85q3 6 9.5 17t10 19t7 19t2.5 23t-7 25q-4 0 -19.5 3t-21 3t-18.5 -2q-56 -24 -88 -56q-131 -140 -199 -325q-15 -49 -16 -64z" />
<glyph unicode="v" horiz-adv-x="862" d="M84 385q-2 -16 -2 -31q0 -44 20 -70q27 -34 93 -40q28 -3 55 -3q85 0 160 31q185 73 340 244q193 216 313 500q87 208 87 449q0 23 -1 46q0 47 -19 93q-12 29 -31.5 33.5t-54.5 -13.5q2 -12 7 -35t8 -41t2 -35q-27 -338 -170 -561q-88 -139 -232 -315 q-134 -160 -294 -242q-4 -2 -15.5 -8.5t-18 -9.5t-16.5 -6.5t-19.5 -3t-19.5 3.5q-8 16 -8 26q4 43 13 66q45 133 65 180q16 37 48.5 106t43.5 93q1 2 8.5 17.5t9 21t5 18.5t1.5 24t-7 23q-22 9 -40 9q-15 0 -29 -7q-28 -15 -56 -51q-159 -212 -221 -399q-14 -45 -25 -113z " />
<glyph unicode="w" horiz-adv-x="1181" d="M205 559q0 -44 4 -67q12 -69 84 -78q15 -2 30 -2q71 0 123 41l86 73q18 -29 19 -32q47 -133 209 -136h8q122 0 207 88q52 50 110 132q93 130 164 344q24 75 39.5 170.5t21.5 153.5t13 175q2 32 2 79.5t-2 111.5q0 54 -49 57h-5q-43 0 -57 -47q-5 -17 -10 -66 q-7 -41 -33.5 -214.5t-44.5 -266.5q-57 -286 -239 -504q-41 -49 -94 -96q-29 -25 -53 -17t-33 46q-8 34 -8 78q0 16 1 34q2 22 12 62.5t13 58.5q2 12 2 23q0 27 -15 43q-18 19 -53 19q-6 0 -14 -1q-43 -5 -72 -57q-66 -115 -170 -205q-15 -13 -57 -39q1 16 2.5 44.5t3.5 47 t6 35.5q6 26 52 182q7 26 22 64q13 39 -10 51q-34 13 -53 0q-36 -19 -54 -53q-100 -167 -108 -332z" />
<glyph unicode="x" horiz-adv-x="817" d="M102 289q23 -16 42 -16.5t30 6.5t25 22q27 25 78 77.5t77 78.5q4 5 62 51q9 -13 32.5 -46.5t34.5 -51.5q9 -13 36 -51t42 -58q38 -45 105 -45h8q20 1 32.5 4t25 14t18.5 29q-95 174 -172 359q13 13 44.5 45t52 54t38.5 44q13 15 43.5 43.5t51 53t30.5 52.5q-20 30 -50 30 q-16 0 -36 -9q-28 -12 -80 -49q-5 -4 -170 -140q-89 98 -109 117q-48 46 -103 46q-14 0 -28 -3q-50 -12 -50 -49q0 -14 7 -31q14 -36 76 -153q4 -9 45 -88q-33 -56 -118 -163.5t-120 -172.5z" />
<glyph unicode="y" horiz-adv-x="1060" d="M-244 -709q3 -81 76 -96q44 -9 81 -9q21 0 40 3q166 27 309 180q89 100 172 215q208 292 414 733q35 72 94 119q67 50 187.5 146t166.5 131q132 108 209 168q8 8 27 41q-48 -12 -121 -64l-108 -80q-20 -15 -58 -42t-51 -36q-70 -54 -107 -79q-7 -5 -31 -25t-43.5 -31.5 t-45.5 -17.5q6 16 14 38.5t12 32.5q14 32 47 101t50 108q17 38 32 99q2 7 2 14q0 31 -37 47q-23 10 -45 10q-44 0 -88 -39l-180 -157q-204 -177 -368 -271q-5 -3 -14.5 -8t-16 -8.5t-15 -6.5t-18 -2.5t-20.5 3.5q10 56 53.5 146.5t102.5 195.5t75 139q-36 26 -69 26 q-39 0 -74 -34q-76 -72 -163.5 -223.5t-105.5 -247.5q-2 -13 -2 -26q0 -35 19 -60q27 -33 82 -41q26 -3 49 -3q77 0 137 32q92 51 203 127q26 18 70 54t57 46q8 -4 14 -10q-13 -24 -36.5 -67.5t-42.5 -80.5t-34 -71q-79 -189 -270 -322q-225 -155 -412 -373 q-77 -96 -176 -250q-44 -68 -44 -153q0 -10 1 -21zM-86 -729q-4 21 -4 42q0 54 29 103q80 140 131 209q123 164 340 363q5 5 32 20l-16 -43q-165 -287 -279 -481q-64 -112 -157 -176q-1 -1 -76 -37z" />
<glyph unicode="z" horiz-adv-x="1189" d="M295 815q23 -30 60.5 -30t68.5 14q24 7 50.5 17t59.5 22.5t52 19.5l133 43q-27 -35 -55 -67l-304 -345q-41 -52 -47 -61q-16 -28 -16 -49q-1 -7 1 -14q8 -26 48 -46q48 -20 90 -28q111 -18 245 -18q195 0 441 38q20 4 32 7.5t25 14.5t19 27q-32 38 -45 45t-57 7 q-48 0 -144 -2t-143 -2q-65 0 -291 4q12 18 27 41t24.5 37t18.5 26q50 62 160 193q84 98 110 131q15 20 19.5 26.5t13.5 24t8 32t-10 29.5q-6 11 -14.5 19t-15.5 12.5t-22 7.5l-20 4t-24 2.5t-21 1.5q-8 0 -10 -2q-237 -29 -420 -123q-2 -1 -10.5 -6t-11 -7t-9 -7t-9 -10 t-5 -12.5t-2.5 -16.5z" />
<glyph unicode="{" />
<glyph unicode="|" horiz-adv-x="780" d="M205 111q0 -2 4 -2q0 -12 -0.5 -35.5t-0.5 -43t1 -36.5q1 -56 34.5 -79.5t86.5 -8.5q47 15 59 59q15 57 17 94q44 633 57 783q7 89 72 655q26 252 40 408q4 39 -15 57.5t-58 15.5q-49 -6 -64 -51q-28 -90 -32 -119q-9 -51 -39 -218.5t-47.5 -278.5t-30.5 -219 q-17 -147 -30.5 -305.5t-29.5 -371t-24 -304.5z" />
<glyph unicode="}" />
<glyph unicode="~" />
<glyph unicode="&#xa1;" horiz-adv-x="1259" d="M215 27q20 -24 82 -19q54 3 82 41q56 82 70 115q207 432 315 786q8 24 14 52t11.5 58t7.5 40l-9 106q0 9 -4 29q-9 40 -41 54t-67 -7q-18 -10 -47 -47q-71 -98 -109 -221q-33 -101 -90 -262q-153 -454 -215 -643q-20 -58 0 -82zM786 1569q-3 -22 6 -39t29 -23 q57 -15 94 -10q60 7 101 64t39 129q-1 5 -5 22t-6.5 24.5t-8.5 20t-16 19.5t-24 12q-57 21 -112 -27q-6 -3 -9 -6q-63 -61 -88 -186z" />
<glyph unicode="&#xab;" horiz-adv-x="1757" d="M205 858q72 -78 229 -131q69 -23 202 -70.5t148 -52.5l28 -10.5t34 -11t28 -4.5q39 -4 65.5 4t43.5 41q-20 25 -25 28q-180 90 -272 133q-25 10 -76 28t-75 28q-10 4 -20.5 11t-25.5 18t-26 18l84 63q185 120 366 240q3 2 23 13.5t26.5 17t15 19t9.5 30.5q-65 58 -168 8 q-157 -77 -262 -139q-65 -40 -183.5 -116.5t-168.5 -107.5v-57zM770 858q42 -46 97 -75.5t132 -55.5q52 -17 110.5 -37.5t130 -46t110.5 -39.5q72 -25 90 -26q38 -4 64 4t44 41q-2 3 -5.5 7.5t-6 8t-6 7t-6.5 5.5q-169 85 -275 133q-26 11 -77 29t-74 27q-11 6 -34.5 22.5 t-35.5 24.5q67 52 84 63q60 40 183 120t184 120q3 2 23 13.5t26 17t14.5 19t9.5 30.5q-66 59 -170 8q-159 -78 -260 -139q-70 -42 -198 -124.5t-154 -99.5v-57z" />
<glyph unicode="&#xad;" horiz-adv-x="1222" d="M205 727q0 2 1 5t1 5q11 26 38.5 48.5t55.5 23.5l389 8q46 0 62 1t63 1q9 0 36 1.5t46 2t41.5 -4t34.5 -13.5q17 -14 35 -72q14 -27 8 -39q-2 -4 -6 -8q-6 -4 -17 -6t-25.5 -4t-15.5 -2l-217 -10q-55 0 -334 -2q-39 0 -125 4q-36 3 -61 32q-12 17 -10 29z" />
<glyph unicode="&#xb7;" horiz-adv-x="677" d="M205 688q2 -6 5 -22t6 -24.5t8.5 -20t15 -19t22.5 -12.5q61 -22 115 26l6 7q67 62 88 186q5 22 -4.5 38.5t-30.5 20.5q-61 17 -92 13q-60 -7 -100.5 -64t-38.5 -129z" />
<glyph unicode="&#xbb;" horiz-adv-x="1722" d="M205 1167q36 49 94 39q4 -1 100 -30l301 -99q96 -30 172 -57q36 -12 68 -37q56 -43 16 -100q-25 -41 -69 -78q-60 -53 -115 -84q-114 -67 -283 -162q-63 -33 -120 -22q-9 2 -25.5 13t-21.5 13q7 25 23 45.5t29.5 30.5t37.5 25q31 20 95.5 55.5t94.5 54.5q56 35 139 100 q6 4 12 12t13.5 19.5t13.5 18.5q-9 4 -29.5 16.5t-31.5 15.5q-36 12 -123 36t-133 40q-85 32 -209 92q-6 3 -13 8.5t-11.5 10l-13 13zM750 1196q36 52 96 39q15 -3 31.5 -8t37 -12.5t31.5 -10.5l299 -96q116 -37 172 -57q28 -9 68 -37q56 -44 16 -101q-29 -47 -67 -79 q-56 -46 -117 -84q-13 -8 -283 -160q-60 -37 -119 -23q-7 2 -14.5 6t-18 11.5t-14.5 9.5q6 25 21.5 45t28.5 29.5t38 25.5q29 18 94 54t97 57q56 35 139 100q6 4 12 11.5t15 19.5t14 18q-9 4 -30 16t-31 15q-22 7 -114.5 33.5t-141.5 44.5q-71 24 -211 90q-10 5 -26.5 21.5 t-22.5 21.5z" />
<glyph unicode="&#xbf;" horiz-adv-x="1507" d="M209 45q15 -128 143 -137q48 -3 113 8q325 66 506 416q23 47 26 110q3 34 -17 56.5t-56 27.5q-16 1 -70 -4q-8 -24 -21 -70.5t-24.5 -80.5t-26.5 -62q-9 -15 -20.5 -31t-20 -27t-25.5 -30t-22.5 -25.5t-26.5 -29t-24 -25.5q-90 -93 -188 -106q-24 59 2 143q32 111 69 187 q57 123 199 303q27 33 108.5 138.5t129.5 160.5q83 92 129 272q8 37 8 115q-3 67 -38.5 83t-94.5 3q-22 -5 -52 -39q-81 -92 -118 -279q-10 -61 -26 -84q-4 -6 -9 -12q-32 -39 -90 -108.5t-106 -128t-89 -111.5q-111 -145 -196 -293q-93 -160 -72 -340zM1014 1700 q3 -14 15.5 -28.5t25.5 -18.5q61 -20 100 -15q62 7 95 48.5t48 109.5q15 63 -19 103t-108 40q-55 -18 -65 -24q-43 -25 -74 -96.5t-18 -118.5z" />
<glyph unicode="&#xd7;" horiz-adv-x="1341" d="M205 723q9 -47 52 -68.5t87 0.5q51 25 143.5 72.5t128.5 65.5l66 30q19 -11 43 -28.5t41.5 -30.5t41.5 -28.5t42.5 -24t45 -17t48.5 -7t53 6.5q23 55 -24 99q-15 15 -45 38.5t-35 28.5q-4 3 -16 11t-18 13.5t-13 16.5t-8 25q19 12 71 44t80 50q99 65 119 82q42 34 22 84 q-13 29 -38 43.5t-54 9.5q-16 -3 -63 -22l-260 -117q-21 -10 -58.5 -26t-38.5 -17q-41 14 -88.5 48.5t-94 62.5t-97.5 32q-3 -38 11.5 -70t34.5 -51t46 -47t39 -53q-11 -7 -33.5 -20t-38 -23t-28.5 -21q-77 -61 -148 -133q-9 -9 -14 -27.5t-2 -31.5z" />
<glyph unicode="&#xf7;" horiz-adv-x="1222" d="M205 621q0 2 1 5t1 5q11 26 38.5 48t55.5 23l389 9q46 0 62 1t63 1q8 0 36 1.5t46.5 1.5t41 -4.5t34.5 -13.5q18 -14 35 -71q14 -27 8 -39q-2 -4 -6 -8q-8 -5 -58 -13l-217 -10q-55 0 -334 -2q-39 0 -125 4q-35 3 -61 33q-12 17 -10 29zM455 252q2 -6 5 -22t6 -24.5 t8.5 -20t15 -19t22.5 -12.5q61 -22 115 26l6 6q67 62 88 187q5 22 -4.5 38.5t-30.5 20.5q-59 16 -92 12q-60 -7 -100.5 -63.5t-38.5 -128.5zM481 885q2 -6 5.5 -22.5t6 -24.5t8.5 -20t15.5 -19.5t22.5 -12.5q59 -21 114 27l6 6q68 63 89 187q5 22 -4.5 38.5t-30.5 20.5 q-59 16 -92 12q-60 -7 -101 -63.5t-39 -128.5z" />
<glyph unicode="&#x2000;" horiz-adv-x="1196" />
<glyph unicode="&#x2001;" horiz-adv-x="2392" />
<glyph unicode="&#x2002;" horiz-adv-x="1196" />
<glyph unicode="&#x2003;" horiz-adv-x="2392" />
<glyph unicode="&#x2004;" horiz-adv-x="797" />
<glyph unicode="&#x2005;" horiz-adv-x="598" />
<glyph unicode="&#x2006;" horiz-adv-x="398" />
<glyph unicode="&#x2007;" horiz-adv-x="398" />
<glyph unicode="&#x2008;" horiz-adv-x="299" />
<glyph unicode="&#x2009;" horiz-adv-x="478" />
<glyph unicode="&#x200a;" horiz-adv-x="132" />
<glyph unicode="&#x2010;" horiz-adv-x="1222" d="M205 727q0 2 1 5t1 5q11 26 38.5 48.5t55.5 23.5l389 8q46 0 62 1t63 1q9 0 36 1.5t46 2t41.5 -4t34.5 -13.5q17 -14 35 -72q14 -27 8 -39q-2 -4 -6 -8q-6 -4 -17 -6t-25.5 -4t-15.5 -2l-217 -10q-55 0 -334 -2q-39 0 -125 4q-36 3 -61 32q-12 17 -10 29z" />
<glyph unicode="&#x2011;" horiz-adv-x="1222" d="M205 727q0 2 1 5t1 5q11 26 38.5 48.5t55.5 23.5l389 8q46 0 62 1t63 1q9 0 36 1.5t46 2t41.5 -4t34.5 -13.5q17 -14 35 -72q14 -27 8 -39q-2 -4 -6 -8q-6 -4 -17 -6t-25.5 -4t-15.5 -2l-217 -10q-55 0 -334 -2q-39 0 -125 4q-36 3 -61 32q-12 17 -10 29z" />
<glyph unicode="&#x2012;" horiz-adv-x="1222" d="M205 727q0 2 1 5t1 5q11 26 38.5 48.5t55.5 23.5l389 8q46 0 62 1t63 1q9 0 36 1.5t46 2t41.5 -4t34.5 -13.5q17 -14 35 -72q14 -27 8 -39q-2 -4 -6 -8q-6 -4 -17 -6t-25.5 -4t-15.5 -2l-217 -10q-55 0 -334 -2q-39 0 -125 4q-36 3 -61 32q-12 17 -10 29z" />
<glyph unicode="&#x2013;" horiz-adv-x="1431" d="M204 727q0 2 1.5 5t1.5 5q14 26 48.5 48.5t69.5 23.5l490 8q58 0 78 1t80 1q11 0 45 1.5t58 2t52 -4t44 -13.5q21 -14 44 -72q17 -27 10 -39q-3 -4 -8 -8q-7 -4 -21 -6t-32.5 -4t-19.5 -2l-273 -10q-69 0 -421 -2q-49 0 -157 4q-46 3 -77 32q-15 17 -13 29z" />
<glyph unicode="&#x2014;" horiz-adv-x="2456" d="M205 727q0 2 2.5 5t2.5 5q27 26 96.5 48.5t140.5 23.5l979 8q116 0 156.5 1t158.5 1q23 0 91 1.5t116 2t104.5 -4t86.5 -13.5q43 -14 88 -72q36 -27 20 -39q-5 -4 -15 -8q-15 -4 -42.5 -6t-64 -4t-39.5 -2l-546 -10q-139 0 -842 -2q-98 0 -314 4q-91 3 -154 32 q-30 17 -25 29z" />
<glyph unicode="&#x2026;" horiz-adv-x="1501" d="M205 104q2 -6 5 -22t6 -24.5t8.5 -20t15 -19t22.5 -12.5q60 -21 115 27l6 6q67 62 88 186q5 22 -4.5 39t-30.5 21q-59 16 -92 12q-60 -7 -100.5 -64t-38.5 -129zM618 113q2 -6 5.5 -22.5t6 -24.5t8.5 -20t15.5 -19.5t22.5 -12.5q60 -21 115 27l6 6q67 62 88 186 q5 22 -4.5 39t-30.5 21q-59 16 -92 12q-60 -7 -101 -63.5t-39 -128.5zM1028 113q2 -7 5 -22.5t6 -24.5t8.5 -20.5t15 -19t22.5 -12.5q60 -21 115 27l6 6q67 62 88 186q5 23 -4 39.5t-30 20.5q-59 16 -93 12q-60 -7 -100.5 -63.5t-38.5 -128.5z" />
<glyph unicode="&#x202f;" horiz-adv-x="478" />
<glyph unicode="&#x2039;" horiz-adv-x="1191" d="M205 858q42 -46 97 -75.5t132 -55.5q69 -23 202 -70.5t148 -52.5q72 -25 90 -26q38 -4 64.5 4t44.5 41q-20 25 -25 28q-180 90 -274 133q-26 11 -77.5 29t-74.5 27q-11 6 -33.5 22.5t-35.5 24.5q67 52 84 63q60 40 182.5 120t183.5 120q3 2 23 13.5t26.5 17t15 19 t9.5 30.5q-66 59 -170 8q-159 -78 -260 -139q-70 -42 -198 -124.5t-154 -99.5v-57z" />
<glyph unicode="&#x203a;" horiz-adv-x="1177" d="M205 1196q6 -5 22.5 -21.5t26.5 -21.5q140 -66 211 -90q49 -18 141.5 -44.5t114.5 -33.5q10 -3 31 -15t30 -16q-5 -6 -11 -14.5t-10 -14t-9.5 -11.5t-10.5 -9q-83 -65 -139 -100q-32 -21 -96.5 -57t-93.5 -54q-25 -16 -38 -25.5t-28.5 -29.5t-21.5 -45q4 -2 14.5 -9.5 t18 -11.5t14.5 -6q58 -14 118 23q270 152 283 160q62 38 117 84q38 32 67 79q40 57 -16 101q-40 28 -68 37q-56 20 -172 57l-299 96q-4 1 -42 14t-58 17q-60 13 -96 -39z" />
<glyph unicode="&#x205f;" horiz-adv-x="598" />
<glyph unicode="&#x25fc;" horiz-adv-x="983" d="M0 0v983h983v-983h-983z" />
</font>
</defs>
</svg>
