<svg xmlns="http://www.w3.org/2000/svg" viewBox="0 0 70 10" height="10px" width="70px">
	<path fill="#F9C189" d="M69.9,4.7c0,0-5.9-2.7-6.6-2.4c0,0,0,0-0.1,0.1c0,0-0.1,0.1-0.1,0.1c0,0,0,0.1-0.1,0.1c0,0.1-0.1,0.2-0.1,0.3
		c0,0,0,0,0,0c-0.1,0.4-0.1,1.1,0,1.9H14.7L9.6,0.1c0,0,0,0,0,0C9.4-0.1,9.1,0,9,0.2c0,0.1-0.1,0.1-0.1,0.2C8.8,0.5,8.9,0.7,9,0.9
		l4.2,3.7H11c0,0-0.1,0-0.1,0L6.3,0.5c0,0,0,0,0,0C6.1,0.4,5.8,0.4,5.7,0.6c0,0,0,0,0,0c0,0,0,0,0,0C5.5,0.8,5.5,1.1,5.7,1.3l3.8,3.3
		H7.3L4,2c0,0,0,0,0,0C3.8,1.8,3.5,1.9,3.4,2.1C3.3,2.2,3.2,2.3,3.3,2.4c0,0.1,0.1,0.2,0.2,0.3l2.3,1.9H0.5C0.3,4.6,0.1,4.8,0,4.9
		C0,5,0,5.1,0,5.1c0,0.3,0.2,0.5,0.5,0.5h5.1L3.6,7.3C3.4,7.5,3.3,7.8,3.5,8c0,0,0,0,0,0c0,0,0.1,0.1,0.1,0.1c0,0,0,0,0,0
		c0,0,0.1,0,0.1,0c0,0,0,0,0,0c0,0,0,0,0,0c0.1,0,0.1,0,0.2-0.1c0,0,0,0,0,0l3-2.5h2.3L6,8.8C5.9,8.9,5.8,9,5.8,9.1
		c0,0.1,0,0.3,0.1,0.4c0,0,0,0,0,0C6,9.6,6,9.6,6,9.6c0,0,0,0,0,0c0.1,0,0.1,0,0.2,0c0,0,0,0,0,0c0,0,0,0,0,0c0.1,0,0.2,0,0.3-0.1
		l4.4-3.9h2.3l-4,3.5C9,9.3,8.9,9.6,9.1,9.8C9.2,9.9,9.3,10,9.5,10c0.1,0,0.2,0,0.3-0.1l4.9-4.2h48.5c0,0.2,0.1,0.5,0.1,0.7
		c0.2,1.7,0.4,2.6,2.2,1.6C67,7,69.9,5.5,70,4.9C70.1,4.8,70,4.7,69.9,4.7z"/>
</svg>
