<svg xmlns="http://www.w3.org/2000/svg" viewBox="0 0 12 16">
	<g>
		<path d="M7,4.3V0H0.8C0.3,0,0,0.3,0,0.7c0,0,0,0,0,0v14.5C0,15.7,0.3,16,0.7,16c0,0,0,0,0,0h10.5c0.4,0,0.7-0.3,0.8-0.7
			c0,0,0,0,0,0V5H7.8C7.3,5,7,4.7,7,4.3z M9,11.6C9,11.8,8.8,12,8.6,12H3.4C3.2,12,3,11.8,3,11.6v-0.2C3,11.2,3.2,11,3.4,11h5.2
			C8.8,11,9,11.2,9,11.4V11.6z M9,9.6C9,9.8,8.8,10,8.6,10H3.4C3.2,10,3,9.8,3,9.6V9.4C3,9.2,3.2,9,3.4,9h5.2C8.8,9,9,9.2,9,9.4V9.6z
			M9,7.4v0.2C9,7.8,8.8,8,8.6,8H3.4C3.2,8,3,7.8,3,7.6V7.4C3,7.2,3.2,7,3.4,7h5.2C8.8,7,9,7.2,9,7.4z"/>
		<path d="M11.8,3.3L8.7,0.2C8.6,0.1,8.4,0,8.2,0H8v4h4V3.8C12,3.6,11.9,3.4,11.8,3.3z"/>
	</g>
</svg>
