<svg xmlns="http://www.w3.org/2000/svg" viewBox="0 0 16 16">
	<g>
		<path d="M15.9,4.7L15.9,4.7c0-1.2-0.4-2.4-1.3-3.4c-0.9-0.9-2.1-1.3-3.4-1.3C10,0,6,0,4.7,0.1C3.5,0,2.3,0.5,1.3,1.3
			C0.5,2.2,0,3.5,0.1,4.7C0,6,0,10,0.1,11.3c0,1.2,0.4,2.4,1.3,3.4c0.9,0.9,2.1,1.3,3.4,1.3C6,16,10,16,11.3,15.9
			c1.2,0,2.4-0.4,3.4-1.3c0.9-0.9,1.3-2.1,1.3-3.4C16,10,16,6,15.9,4.7z M14.2,12.7c-0.3,0.7-0.8,1.2-1.5,1.5
			c-1.1,0.4-3.6,0.3-4.7,0.3s-3.7,0.1-4.7-0.3C2.6,14,2,13.4,1.8,12.7C1.3,11.7,1.4,9.2,1.4,8S1.4,4.3,1.8,3.3C2,2.6,2.6,2,3.3,1.8
			C4.3,1.3,6.8,1.4,8,1.4s3.7-0.1,4.7,0.3C13.4,2,14,2.6,14.2,3.3c0.4,1.1,0.3,3.6,0.3,4.7S14.7,11.7,14.2,12.7z"/>
		<path d="M8,3.9C5.7,3.9,3.9,5.7,3.9,8c0,2.3,1.8,4.1,4.1,4.1c2.3,0,4.1-1.8,4.1-4.1C12.1,5.7,10.3,3.9,8,3.9z M8,10.7L8,10.7
			c-1.5,0-2.7-1.2-2.7-2.7c0-1.5,1.2-2.7,2.7-2.7c1.5,0,2.7,1.2,2.7,2.7C10.7,9.5,9.5,10.7,8,10.7z"/>
		<path d="M12.3,2.8C12.3,2.8,12.3,2.8,12.3,2.8c-0.5,0-1,0.4-1,1c0,0.5,0.4,1,1,1c0.5,0,1-0.4,1-1h0C13.2,3.2,12.8,2.8,12.3,2.8z"/>
	</g>
</svg>
