<svg xmlns="http://www.w3.org/2000/svg" viewBox="0 0 22.7 14">
	<g>
		<path d="M12.9,10.7L12.9,10.7c-0.2-0.2-0.4-0.3-0.6-0.3H5.6V3.9l1.4,1.5c0.3,0.3,0.9,0.4,1.2,0c0,0,0,0,0,0l0.4-0.4
			C9,4.7,9,4.2,8.7,3.9L5.1,0.3c-0.3-0.3-0.9-0.3-1.2,0L0.3,3.9c-0.3,0.3-0.3,0.9,0,1.2l0.4,0.4c0.3,0.3,0.9,0.3,1.2,0c0,0,0,0,0,0
			l1.4-1.5v8c0,0.5,0.4,0.9,0.9,0.9h8.7c0.5,0,0.9-0.4,0.9-0.9c0-0.2-0.1-0.4-0.3-0.6L12.9,10.7z"/>
		<path d="M22.5,8.9l-0.4-0.4c0,0,0,0,0,0c-0.3-0.3-0.9-0.3-1.2,0l-1.4,1.5v-8c0-0.5-0.4-0.9-0.9-0.9H9.8
			c-0.2,0-0.4,0.1-0.6,0.3c-0.3,0.3-0.3,0.9,0,1.2l0.6,0.6c0.2,0.2,0.4,0.3,0.6,0.3h6.7v6.5l-1.5-1.5c0,0,0,0,0,0
			c-0.3-0.3-0.9-0.3-1.2,0L14,8.9c-0.3,0.3-0.3,0.9,0,1.2l3.6,3.6c0.3,0.3,0.9,0.3,1.2,0l3.6-3.6h0C22.8,9.8,22.8,9.3,22.5,8.9z"/>
	</g>
</svg>
