<svg xmlns="http://www.w3.org/2000/svg" viewBox="0 0 22.2 34.2">
	<g>
		<circle cx="11.1" cy="6.8" r="1.3"/>
		<circle cx="11.1" cy="12.1" r="1.3"/>
		<polygon points="11.1,24.9 7.1,20.6 5.1,22.4 11.1,28.8 17.1,22.4 15.1,20.6 	"/>
		<path d="M14.2,0H8C3.6,0,0,3.6,0,8v18.2c0,4.4,3.6,8,8,8h6.2c4.4,0,8-3.6,8-8V8C22.2,3.6,18.6,0,14.2,0z M19.5,26.2
			c0,3-2.4,5.4-5.4,5.4H8c-3,0-5.4-2.4-5.4-5.4V8c0-3,2.4-5.4,5.4-5.4h6.2c3,0,5.4,2.4,5.4,5.4V26.2z"/>
		<circle cx="11.1" cy="17.5" r="1.3"/>
	</g>
</svg>
