<svg xmlns="http://www.w3.org/2000/svg" viewBox="0 0 16 14" height="14px" width="16px">
	<g>
		<path fill="#000000" d="M10,6.6L8.5,9.7C8.3,10,8,10.1,7.8,9.9C7.7,9.9,7.6,9.8,7.6,9.7L5.8,5.8L4.8,8H1.9l5.7,5.8c0.2,0.2,0.6,0.2,0.8,0
			c0,0,0,0,0,0L14.1,8h-3.4L10,6.6z"/>
		<path fill="#000000" d="M14.8,1.3L14.8,1.3L14.8,1.3c-1.7-1.7-4.2-1.7-5.9-0.1c0,0,0,0-0.1,0.1L8,2.1L7.1,1.2C5.6-0.4,3-0.4,1.3,1.2
			c0,0-0.1,0-0.1,0.1L1.2,1.3C-0.3,2.9-0.4,5.3,1,7h3.2l1.1-2.7C5.4,4.1,5.7,3.9,5.9,4c0.1,0,0.2,0.1,0.3,0.3l1.8,4l1.5-3.1
			C9.7,5,10,4.9,10.2,5.1c0.1,0,0.2,0.1,0.2,0.2L11.3,7H15C16.4,5.3,16.3,2.9,14.8,1.3z"/>
	</g>
</svg>
