<svg xmlns="http://www.w3.org/2000/svg" viewBox="0 0 14 14" height="14px" width="14px">
	<path fill="#000000" d="M13.5,12h-0.8L8.6,0.3C8.5,0.1,8.3,0,8.1,0H5.9C5.7,0,5.5,0.1,5.4,0.3L1.3,12H0.5C0.2,12,0,12.2,0,12.5v1
		C0,13.8,0.2,14,0.5,14h4.2c0.3,0,0.5-0.2,0.5-0.5v-1C5.2,12.2,5,12,4.8,12H4l0.8-2.5h4.3L10,12H9.2c-0.3,0-0.5,0.2-0.5,0.5v1
		C8.8,13.8,9,14,9.2,14h4.2c0.3,0,0.5-0.2,0.5-0.5v-1C14,12.2,13.8,12,13.5,12z M5.4,7.4l1.3-3.9C6.9,3.2,6.9,2.8,7,2.4
		c0,0.4,0.1,0.7,0.2,1.1l1.3,3.9H5.4z"/>
</svg>
