<svg xmlns="http://www.w3.org/2000/svg" viewBox="0 0 22.9 16" height="16px" width="22.9px">
	<g>
		<circle fill="#E4BB7A" cx="17.1" cy="4.6" r="3.4"/>
		<circle fill="#E4BB7A" cx="6.9" cy="4" r="4"/>
		<path fill="#E4BB7A" d="M18.9,9.1h-0.1c-1,0.4-2.1,0.4-3.2,0h-0.1c-0.7,0-1.4,0.2-2,0.5c0.9,1,1.4,2.2,1.4,3.6v1.4c0,0.1,0,0.2,0,0.2
			h6.3c0.9,0,1.7-0.8,1.7-1.7C22.9,10.9,21.1,9.1,18.9,9.1z"/>
		<path fill="#E4BB7A" d="M9.6,9.1H9.3c-1.5,0.8-3.4,0.8-4.9,0H4.1C1.8,9.1,0,11,0,13.3v1C0,15.2,0.8,16,1.7,16H12
			c0.9,0,1.7-0.8,1.7-1.7v-1C13.7,11,11.9,9.1,9.6,9.1z"/>
	</g>
</svg>
