<svg xmlns="http://www.w3.org/2000/svg" viewBox="0 0 27.4 24" height="24px" width="27.4px">
	<g>
		<path fill="#E4BB7A" d="M9.4,12H5.1V8.6c0-1.9,1.5-3.4,3.4-3.4H9c0.7,0,1.3-0.6,1.3-1.3c0,0,0,0,0,0V1.3C10.3,0.6,9.7,0,9,0
			c0,0,0,0,0,0H8.6C3.8,0,0,3.8,0,8.6c0,0,0,0,0,0v12.9C0,22.8,1.2,24,2.6,24h6.9c1.4,0,2.6-1.2,2.6-2.6v-6.9C12,13.2,10.8,12,9.4,12
			z"/>
		<path fill="#E4BB7A" d="M24.9,12h-4.3V8.6c0-1.9,1.5-3.4,3.4-3.4h0.4c0.7,0,1.3-0.6,1.3-1.3c0,0,0,0,0,0V1.3c0-0.7-0.6-1.3-1.3-1.3
			c0,0,0,0,0,0H24c-4.7,0-8.6,3.8-8.6,8.6c0,0,0,0,0,0v12.9c0,1.4,1.2,2.6,2.6,2.6h6.9c1.4,0,2.6-1.2,2.6-2.6v-6.9
			C27.4,13.2,26.3,12,24.9,12z"/>
	</g>
</svg>
