<svg xmlns="http://www.w3.org/2000/svg" viewBox="0 0 27.4 24" height="24px" width="27.4px">
	<g>
		<path fill="#E4BB7A" d="M9.4,0H2.6C1.2,0,0,1.2,0,2.6v6.9C0,10.8,1.2,12,2.6,12h4.3v3.4c0,1.9-1.5,3.4-3.4,3.4H3
			c-0.7,0-1.3,0.6-1.3,1.3c0,0,0,0,0,0v2.6C1.7,23.4,2.3,24,3,24c0,0,0,0,0,0h0.4c4.7,0,8.6-3.8,8.6-8.6c0,0,0,0,0,0V2.6
			C12,1.2,10.8,0,9.4,0z"/>
		<path fill="#E4BB7A" d="M24.9,0H18c-1.4,0-2.6,1.2-2.6,2.6v6.9c0,1.4,1.2,2.6,2.6,2.6h4.3v3.4c0,1.9-1.5,3.4-3.4,3.4h-0.4
			c-0.7,0-1.3,0.6-1.3,1.3c0,0,0,0,0,0v2.6c0,0.7,0.6,1.3,1.3,1.3c0,0,0,0,0,0h0.4c4.7,0,8.6-3.8,8.6-8.6c0,0,0,0,0,0V2.6
			C27.4,1.2,26.3,0,24.9,0z"/>
	</g>
</svg>
