<svg xmlns="http://www.w3.org/2000/svg" viewBox="0 0 22.4 16" height="16px" width="22.4px">
	<path fill="#000000" d="M19.1,7.3L19.1,7.3c0.1-0.4,0.2-0.9,0.2-1.3c0-3.3-2.7-6-6-6C10.4,0,8,1.9,7.4,4.6c-1.3-1.1-3.1-1-4.2,0.3
		c-0.5,0.5-0.7,1.2-0.7,2c0,0.3,0,0.5,0.1,0.8c-2.2,1-3.1,3.6-2.1,5.8C1.1,15,2.7,16,4.4,16H18c2.4,0,4.4-2,4.4-4.4
		C22.4,9.6,21,7.8,19.1,7.3z M6.4,13.7H5.3c-0.3,0-0.5-0.2-0.5-0.5v-4c0-0.3,0.2-0.5,0.5-0.5h1.1c0.3,0,0.5,0.2,0.5,0.5l0,4
		C6.9,13.5,6.7,13.7,6.4,13.7z M9.6,13.7H8.5c-0.3,0-0.5-0.2-0.5-0.5V8.5C7.9,8.2,8.2,8,8.5,8h1.1c0.3,0,0.5,0.2,0.5,0.5l0,4.7
		C10.1,13.5,9.9,13.7,9.6,13.7z M12.8,13.7h-1.1c-0.3,0-0.5-0.2-0.5-0.5V7.4c0-0.3,0.2-0.5,0.5-0.5h1.1c0.3,0,0.5,0.2,0.5,0.5l0,5.8
		C13.3,13.5,13.1,13.7,12.8,13.7z M15.9,13.7h-1c-0.3,0-0.5-0.2-0.5-0.5v-8c0-0.3,0.2-0.6,0.5-0.6h1c0.3,0,0.5,0.3,0.5,0.6l0,8
		C16.4,13.5,16.2,13.7,15.9,13.7z"/>
</svg>
